<svg width="188" height="120" viewBox="0 0 188 120" fill="none" xmlns="http://www.w3.org/2000/svg">
<g clip-path="url(#clip0_9294_10004)">
<mask id="mask0_9294_10004" style="mask-type:alpha" maskUnits="userSpaceOnUse" x="11" y="39" width="216" height="42">
<path d="M227 39H11V80.3397H227V39Z" fill="#E20A13"/>
</mask>
<g mask="url(#mask0_9294_10004)">
<path d="M88.6237 64.3359C86.8028 69.5238 84.5276 74.0288 82.9351 76.3958H81.9337C80.0224 76.3958 78.5654 74.6214 77.7473 73.1192C76.2451 70.3884 74.379 65.8381 73.6963 62.106C72.9219 65.8381 70.0558 73.4379 67.8709 76.3958H67.0515C65.2305 76.3958 63.5012 74.5747 62.6831 73.1192C59.1329 66.8381 56.7675 59.7391 55.6744 51.5469H58.951C61.0441 51.5469 62.2727 53.1393 62.5012 54.5047C63.229 58.691 64.3673 63.333 66.4154 67.7931C68.6453 62.924 69.8739 57.6445 71.0573 52.4567H73.0602C74.9264 52.4567 76.7925 53.231 77.3834 55.9151C78.1112 59.2369 79.6135 64.3345 81.3427 67.7931C83.6645 62.6503 84.9832 56.9618 85.9395 51.41H88.4883C90.218 51.41 91.4458 52.1844 91.4458 54.0491C91.4458 55.0055 90.4444 59.2369 88.6251 64.3345L88.6237 64.3359Z" fill="#E20A13"/>
<path d="M98.8574 49.8185C96.901 49.8185 95.3064 48.1795 95.3064 46.2231C95.3064 44.2668 96.899 42.6729 98.8574 42.6729C100.815 42.6729 102.452 44.2653 102.452 46.2231C102.452 48.1809 100.815 49.8185 98.8574 49.8185ZM103.181 76.35C98.4461 76.35 95.8531 73.6644 95.8531 68.7036V52.0922H97.5821C100.313 52.0922 101.951 53.5478 101.951 56.6424V68.1112C101.951 70.5683 102.997 71.3428 105.683 71.3428H106.821V72.6629C106.821 75.302 105.775 76.3486 103.181 76.3486V76.35Z" fill="#E20A13"/>
<path d="M121.892 76.6693C115.611 76.6693 110.332 71.5266 110.332 64.1539V43.3561H112.426C114.793 43.3561 116.43 44.7214 116.43 47.589V54.7346C117.659 52.9602 119.752 51.0024 123.075 51.0024C129.309 51.0024 134.088 56.1 134.088 63.3358C134.088 70.5717 129.355 76.6708 121.892 76.6708V76.6693ZM121.892 56.4173C118.797 56.4173 116.475 59.4668 116.475 63.2893C116.475 68.9327 118.887 71.253 122.527 71.253C125.577 71.253 127.761 68.3403 127.761 64.381C127.761 58.4188 125.624 56.4173 121.892 56.4173Z" fill="#E20A13"/>
<path d="M148.16 66.4743H144.155C144.611 69.569 147.431 71.5253 151.027 71.5253C153.577 71.5253 156.579 71.0246 158.536 69.2037H158.764V71.1149C158.764 74.2547 156.625 76.6666 149.889 76.6666C143.791 76.6666 137.829 71.8427 137.829 64.3331C137.829 56.141 142.835 50.9983 149.844 50.9983C154.942 50.9983 159.673 54.6388 159.673 60.5092C159.673 65.0144 156.26 66.4714 148.16 66.4714V66.4743ZM149.298 56.0987C146.34 56.0987 144.292 58.5108 144.155 61.3317L144.11 62.1512H146.841C152.622 62.1512 153.94 61.5137 153.94 59.7843C153.94 57.3273 152.119 56.0987 149.298 56.0987Z" fill="#E20A13"/>
<path d="M172.373 76.3515C167.322 76.3515 164.59 73.6659 164.59 68.7051V43.3571H166.321C169.369 43.3571 170.688 45.1314 170.688 47.4531V68.1141C170.688 70.5713 171.962 71.3456 174.83 71.3456H176.468V72.6659C176.468 75.3049 175.059 76.3515 172.373 76.3515Z" fill="#E20A13"/>
<path d="M47.7825 57.2156C47.7374 57.1239 47.1028 56.3931 47.0155 56.3393C44.2847 54.677 41.3646 55.5285 39.8056 56.166C38.4257 56.7949 37.1142 57.6406 35.8857 58.5285C32.8114 60.7541 29.8623 63.1544 26.8244 65.431C25.5406 66.3932 24.2306 67.367 22.8084 68.0919C19.7342 69.6582 16.5696 69.9013 13.3834 68.6188C13.1722 68.5344 12.9612 68.4427 12.7516 68.3452C12.6818 68.3132 12.6031 68.2956 12.5216 68.2898C12.1112 68.3786 11.8258 68.7556 11.8681 69.1719C11.8724 69.2157 11.8811 69.2579 11.8928 69.2986C11.9176 69.3918 11.9583 69.4776 12.0122 69.5534C14.4954 74.8009 18.5042 78.3569 24.0835 80.1342C24.2713 80.1939 24.4839 80.1736 24.7008 80.1415C24.8711 80.0542 25.0195 79.91 25.0966 79.683C25.0734 79.5184 25.0472 79.3526 25.0109 79.191C24.9672 78.9974 24.8608 78.8169 24.7968 78.6262C23.9147 76.0337 24.5668 73.466 26.6643 71.7121C28.676 70.0279 31.0661 69.4121 33.5072 68.8372C36.0938 68.2288 38.7097 67.712 41.2555 66.9638C42.3268 66.6494 43.3778 66.2331 44.3473 65.6523C49.8218 62.1632 48.2032 58.0656 47.784 57.2156H47.7825Z" fill="#E20A13"/>
<path d="M40.2451 42.0225C39.8783 40.1754 38.6628 38.9075 36.0093 39.0079C35.9947 39.0079 35.9801 39.0079 35.9656 39.0079C33.8913 38.89 32.2785 40.1098 30.5609 40.9527C28.4036 42.0109 26.36 43.2947 24.2173 44.3835C22.4152 45.3006 20.424 45.5175 18.4399 45.7242C18.3482 45.7343 18.258 45.7431 18.1663 45.7533C18.1154 45.7591 18.0644 45.7722 18.0149 45.7868C17.8038 45.8959 17.6612 46.1157 17.6612 46.369V46.3719C17.6612 46.5422 17.7485 46.7024 17.8781 46.8115C17.8853 46.8174 17.8912 46.8231 17.8985 46.8275C17.9683 46.8828 18.0396 46.9367 18.1095 46.9906C18.2537 47.1012 18.3992 47.2104 18.5463 47.3181C18.8621 47.5233 27.0208 52.7111 36.6438 48.5975C37.3644 48.1652 38.0369 47.6368 38.6453 46.9833C39.9685 45.5597 40.6221 43.9134 40.2465 42.0196L40.2451 42.0225Z" fill="#E20A13"/>
<path d="M46.4669 51.957L46.4756 51.9309C45.1088 50.7911 43.6298 49.9309 41.7987 49.7037C39.6837 49.4417 32.573 52.484 30.934 53.3384C29.2716 54.2059 27.0926 55.5583 25.2192 55.6805C17.4856 56.1812 16.6282 49.3967 16.621 49.318C16.4972 49.0051 16.177 48.7809 15.8 48.7809C15.618 48.7809 15.4478 48.8333 15.3079 48.9221C15.193 49.0633 15.0794 49.2059 14.9674 49.3486C13.0911 51.7358 11.6588 54.3413 11.0648 57.321C11.0488 57.4418 9.90182 66.1552 17.963 66.8C19.5773 66.6573 21.046 66.1712 22.439 65.5088C25.2397 64.0561 31.1654 59.0212 31.1654 59.0212C35.3388 55.0444 38.8904 53.5685 38.8904 53.5685C40.8365 52.6252 43.4203 51.976 46.2937 52.8377C46.2937 52.8377 47.0157 52.7227 46.4683 51.9556L46.4669 51.957Z" fill="#E20A13"/>
<path d="M47.173 66.5707C47.0988 66.5954 47.0275 66.6231 46.959 66.658C45.7057 67.2956 44.5107 68.0641 43.221 68.61C40.2879 69.8502 37.6315 70.4775 34.5324 71.1253C33.6125 71.3174 31.8104 71.8065 30.9181 72.1107C29.0607 72.7439 27.6328 74.0816 27.6328 76.054C27.6328 77.6756 28.3417 79.0467 29.6037 79.8881C31.595 81.2141 36.8467 79.3 38.7448 78.2971C43.2922 75.8938 46.2981 72.1923 47.9517 67.3595C48.1133 66.8777 47.6562 66.412 47.1744 66.5707H47.173Z" fill="#E20A13"/>
</g>
</g>
<defs>
<clipPath id="clip0_9294_10004">
<rect width="188" height="120" fill="white"/>
</clipPath>
</defs>
</svg>
