<svg width="188" height="120" viewBox="0 0 188 120" fill="none" xmlns="http://www.w3.org/2000/svg">
<mask id="mask0_1092_108" style="mask-type:luminance" maskUnits="userSpaceOnUse" x="53" y="10" width="83" height="100">
<path d="M135.682 69.7224V78.4872C135.682 86.2599 129.346 92.6058 121.585 92.6058H107.367L98.562 107.635C98.1405 108.354 97.5387 108.949 96.8165 109.363C96.0942 109.778 95.2765 109.995 94.4443 109.995C93.6122 109.995 92.7945 109.778 92.0722 109.363C91.35 108.949 90.7483 108.354 90.3267 107.635L81.5216 92.6058H67.3033C59.5429 92.6058 53.207 86.2599 53.207 78.4872V69.7224H62.799V78.4872C62.8097 79.6791 63.2881 80.819 64.1309 81.6606C64.9737 82.5022 66.1132 82.9779 67.3033 82.985H84.2486C85.1586 82.9871 86.0493 83.2473 86.8176 83.7355C87.586 84.2237 88.2005 84.9199 88.5901 85.7435L94.4376 95.7448L100.299 85.7435C100.688 84.9199 101.303 84.2237 102.071 83.7355C102.839 83.2473 103.73 82.9871 104.64 82.985H121.585C122.774 82.9779 123.912 82.5017 124.753 81.6598C125.594 80.8178 126.069 79.6779 126.076 78.4872V69.7224H135.682ZM94.4376 10H121.585C129.346 10 135.682 16.3459 135.682 24.1187V32.8834H126.076V24.1187C126.073 22.9256 125.599 21.7822 124.758 20.9373C123.917 20.0924 122.777 19.6144 121.585 19.6072H67.3033C66.1109 19.6144 64.9693 20.092 64.1261 20.9365C63.283 21.781 62.8061 22.9244 62.799 24.1187V32.8834H53.207V24.1187C53.207 16.3459 59.5429 10 67.3033 10H94.4376Z" fill="white"/>
</mask>
<g mask="url(#mask0_1092_108)">
<path d="M135.682 10H53.207V110.002H135.682V10Z" fill="#D01C15"/>
</g>
<mask id="mask1_1092_108" style="mask-type:luminance" maskUnits="userSpaceOnUse" x="53" y="69" width="74" height="41">
<path d="M126.076 78.4874V87.4152C126.076 88.7896 125.532 90.1078 124.563 91.0809C123.594 92.054 122.279 92.6025 120.907 92.6061H107.367L98.562 107.635C96.7304 110.788 92.1583 110.788 90.3267 107.635L81.5216 92.6061H67.3033C59.5429 92.6061 53.207 86.2602 53.207 78.4874V69.7227H62.799V78.4874C62.8097 79.6794 63.2881 80.8193 64.1309 81.6609C64.9737 82.5025 66.1132 82.9782 67.3033 82.9853H84.2486C85.1586 82.9874 86.0493 83.2476 86.8176 83.7358C87.586 84.224 88.2005 84.9202 88.5901 85.7438L94.4376 95.7451L100.299 85.7438C100.688 84.9202 101.303 84.224 102.071 83.7358C102.839 83.2476 103.73 82.9874 104.64 82.9853H121.585C122.774 82.9782 123.912 82.502 124.753 81.66C125.594 80.818 126.069 79.6781 126.076 78.4874Z" fill="white"/>
</mask>
<g mask="url(#mask1_1092_108)">
<path d="M126.076 69.7227H53.207V110.796H126.076V69.7227Z" fill="#D01C15"/>
</g>
<mask id="mask2_1092_108" style="mask-type:luminance" maskUnits="userSpaceOnUse" x="62" y="10" width="74" height="23">
<path d="M94.4335 10H121.581C129.342 10 135.678 16.3459 135.678 24.1187V32.8834H126.072V24.1187C126.068 22.9256 125.595 21.7822 124.754 20.9373C123.913 20.0924 122.772 19.6144 121.581 19.6072H67.2992C66.1068 19.6144 64.9652 20.092 64.1221 20.9365C63.2789 21.781 62.802 22.9244 62.7949 24.1187V15.1909C62.7985 13.8153 63.3457 12.497 64.3168 11.5243C65.288 10.5516 66.6041 10.0036 67.9776 10H94.4335Z" fill="white"/>
</mask>
<g mask="url(#mask2_1092_108)">
<path d="M135.664 10H62.7949V32.8848H135.664V10Z" fill="#D01C15"/>
</g>
<path d="M10.8887 50.9428V50.6167C10.8887 43.768 15.9763 39.4468 22.4072 39.4468C28.2275 39.4468 33.2337 42.7896 33.2337 50.4536V52.3696H18.2556C18.4591 55.1825 20.0872 56.8131 22.6921 56.8131C25.297 56.8131 26.111 55.7125 26.3959 54.2856H33.2337C32.5825 59.096 28.8787 61.8274 22.4479 61.8274C15.7728 61.8274 10.8887 57.9138 10.8887 50.9428ZM26.1517 48.2522C26.0296 45.684 24.7679 44.2572 22.4072 44.2572C20.0465 44.2572 18.7033 45.684 18.337 48.2522H26.1517Z" fill="white"/>
<path d="M35.3496 40.0175H42.6352V43.4418C43.7748 41.2405 46.0948 39.4468 49.6358 39.4468C53.7466 39.4468 56.5957 42.015 56.5957 47.4777V61.3382H49.3102V48.9453C49.3102 46.5401 48.3741 45.3579 46.2576 45.3579C44.1411 45.3579 42.6352 46.6624 42.6352 49.3937V61.3382H35.3496V40.0175Z" fill="white"/>
<path d="M58.5508 61.3382H65.7956C66.1212 62.8873 67.0574 64.1103 69.703 64.1103C72.9184 64.1103 74.2208 62.2758 74.2208 59.626V56.3647C73.5779 57.5533 72.6251 58.545 71.464 59.2342C70.3029 59.9234 68.9769 60.2842 67.6272 60.2783C62.6616 60.2783 58.5915 56.6093 58.5915 50.046V49.7198C58.5915 43.4418 62.6209 39.4468 67.6272 39.4468C71.0054 39.4468 72.9998 40.8736 74.2208 43.0342V40.0175H81.5064V59.5445C81.5064 65.904 77.3141 69.2468 69.703 69.2468C62.4581 69.2468 59.1206 66.1894 58.5508 61.3382ZM74.4243 50.0052V49.7198C74.4243 46.7847 72.9184 44.9094 70.2321 44.9094C67.5458 44.9094 66.0398 46.8254 66.0398 49.7606V50.0867C66.0398 53.0219 67.5865 54.8971 70.1914 54.8971C72.7963 54.8971 74.4243 53.0219 74.4243 50.0052Z" fill="white"/>
<path d="M83.5801 55.4271C83.5801 50.4129 87.813 48.4561 94.8951 48.4561H96.9301V47.9669C96.9301 45.9286 96.4417 44.5833 94.1217 44.5833C92.1274 44.5833 91.3948 45.7655 91.2319 47.1108H84.3941C84.7197 41.9743 88.7492 39.4468 94.5695 39.4468C100.39 39.4468 104.175 41.852 104.175 47.5185V61.3382H97.093V58.8515C96.0754 60.4006 94.2032 61.8274 90.7842 61.8274C86.9583 61.8274 83.5801 59.9521 83.5801 55.4271ZM96.9301 53.878V52.5735H95.0172C92.0867 52.5735 90.7842 53.1442 90.7842 54.8971C90.7842 56.1201 91.5983 56.8947 93.3077 56.8947C95.3835 56.8947 96.9301 55.7125 96.9301 53.878Z" fill="white"/>
<path d="M106.129 61.3382H113.374C113.699 62.8873 114.636 64.1103 117.281 64.1103C120.497 64.1103 121.799 62.2758 121.799 59.626V56.3647C121.156 57.5533 120.203 58.545 119.042 59.2342C117.881 59.9234 116.555 60.2842 115.205 60.2783C110.24 60.2783 106.17 56.6093 106.17 50.046V49.7198C106.17 43.4418 110.199 39.4468 115.205 39.4468C118.584 39.4468 120.578 40.8736 121.799 43.0342V40.0175H129.085V59.5445C129.085 65.904 124.892 69.2468 117.281 69.2468C110.036 69.2468 106.699 66.1894 106.129 61.3382ZM122.002 50.0052V49.7198C122.002 46.7847 120.497 44.9094 117.81 44.9094C115.124 44.9094 113.618 46.8254 113.618 49.7606V50.0867C113.618 53.0219 115.165 54.8971 117.77 54.8971C120.374 54.8971 122.002 53.0219 122.002 50.0052Z" fill="white"/>
<path d="M131.242 50.9428V50.6167C131.242 43.768 136.33 39.4468 142.761 39.4468C148.581 39.4468 153.587 42.7896 153.587 50.4536V52.3696H138.609C138.813 55.1825 140.441 56.8131 143.046 56.8131C145.447 56.8131 146.465 55.7125 146.749 54.2856H153.587C152.936 59.096 149.232 61.8274 142.801 61.8274C136.126 61.8274 131.242 57.9138 131.242 50.9428ZM146.505 48.2522C146.383 45.684 145.121 44.2572 142.761 44.2572C140.4 44.2572 139.057 45.684 138.691 48.2522H146.505Z" fill="white"/>
<path d="M154.645 50.9021V50.576C154.645 43.3196 158.633 39.4468 163.68 39.4468C167.018 39.4468 169.012 40.8737 170.233 43.0343V30.6414H177.519V61.3383H170.233V57.8732C169.175 60.0745 166.814 61.8275 163.599 61.8275C158.674 61.8275 154.645 58.2808 154.645 50.9021ZM170.437 50.7798V50.4537C170.437 46.8663 168.931 44.9503 166.244 44.9503C163.558 44.9503 162.052 46.7848 162.052 50.4945V50.8206C162.052 54.408 163.64 56.2425 166.163 56.2425C168.687 56.2425 170.437 54.408 170.437 50.7798Z" fill="white"/>
</svg>
