<svg width="175" height="120" viewBox="0 0 175 120" fill="none" xmlns="http://www.w3.org/2000/svg">
<g clip-path="url(#clip0_1092_131)">
<path d="M42.5562 56.8292L42.5283 65.8654H39.159V57.838C39.159 56.1422 38.2667 55.2775 36.2916 55.2775C35.3156 55.2775 34.4001 55.5369 33.5357 56.0846C33.5357 56.2575 33.5636 56.4304 33.5636 56.6034L33.5357 65.8702H30.2221V57.5834C30.2221 56.0605 29.3298 55.2823 27.3826 55.2823C26.3788 55.2823 25.4632 55.5129 24.3757 56.0605V65.8702H20.9785V52.6305H23.5392L23.8459 53.6394C25.4865 52.717 27.1595 52.3423 28.7443 52.3423C30.6636 52.3423 32.0299 52.8899 32.8061 53.9228C34.2514 52.8275 36.0639 52.3423 37.788 52.3423C40.9343 52.3423 42.5469 53.8363 42.5469 56.8292" fill="white"/>
<path d="M47.9051 65.6923H44.7821V52.6832H47.9051V65.6923ZM44.4521 48.1867C44.4521 47.0818 45.298 46.2075 46.3204 46.2075C47.3428 46.2075 48.1607 47.0818 48.1607 48.1867C48.1607 49.3733 47.2917 50.2236 46.3204 50.2236C45.298 50.2236 44.4521 49.3733 44.4521 48.1867Z" fill="white"/>
<path d="M47.9051 65.6923H44.7821V52.6832H47.9051V65.6923ZM44.4521 48.1867C44.4521 47.0818 45.298 46.2075 46.3204 46.2075C47.3428 46.2075 48.1607 47.0818 48.1607 48.1867C48.1607 49.3733 47.2917 50.2236 46.3204 50.2236C45.298 50.2236 44.4521 49.3733 44.4521 48.1867Z" stroke="white" stroke-miterlimit="10"/>
<path d="M61.1504 61.979C61.1504 64.5395 59.0916 66.1488 55.304 66.1488C53.1058 66.1488 50.9913 65.5147 49.4019 64.453L50.4893 62.0078C51.8789 62.8437 53.0779 63.4442 54.8857 63.4442C56.6936 63.4442 57.6416 63.1271 57.6416 62.0078C57.6416 59.7356 49.6528 62.0367 49.6528 56.5409C49.6528 53.894 51.6558 52.3423 55.2204 52.3423C57.2513 52.3423 59.1706 52.9188 60.5927 53.9516L59.5052 56.1951C58.3341 55.388 57.0561 55.0421 55.555 55.0421C53.8308 55.0421 52.9385 55.388 52.9385 56.5073C52.9385 59.0966 61.1504 56.7091 61.1504 61.9742" fill="white"/>
<path d="M61.8706 59.2456C61.8706 54.8163 64.4034 52.3423 68.9114 52.3423C70.8586 52.3423 72.6664 52.7458 73.8933 53.4952L73.1126 56.2863C71.7788 55.6234 70.4403 55.2775 69.1344 55.2775C66.6016 55.2775 65.1842 56.7139 65.1842 59.2456C65.1842 61.7772 66.5737 63.2136 69.1065 63.2136C70.524 63.2136 71.9182 62.7813 73.0057 62.0607L74.0932 64.5635C72.7036 65.5724 70.8354 66.144 68.9439 66.144C64.4081 66.1728 61.8753 63.6988 61.8753 59.2408" fill="#D01C15"/>
<path d="M87.6405 52.6304V65.8652H85.0798L84.6895 64.5682C83.2162 65.6923 81.2922 66.1487 79.5959 66.1487C76.3939 66.1487 75.0322 64.7123 75.0322 61.6906V52.6304H78.4295V61.0901C78.4295 62.6706 79.2939 63.3624 81.269 63.3624C82.1892 63.3624 83.2162 62.9877 84.2479 62.2431V52.6304H87.6452H87.6405Z" fill="#D01C15"/>
<path d="M99.2356 58.2079C99.2078 56.1374 98.1203 55.0133 96.2009 55.0133C94.0585 55.0133 92.8037 56.1662 92.5248 58.2079H99.231H99.2356ZM102.382 59.0726L102.354 60.3649H92.5853C93.0314 62.2048 94.4767 63.3001 96.7586 63.3001C98.3991 63.3001 99.9606 62.9254 101.127 62.2096L101.936 64.7124C100.323 65.6348 98.2922 66.1488 96.2567 66.1488C91.7209 66.1488 89.1602 63.6748 89.1602 59.2456C89.1602 54.8163 91.6372 52.3423 96.0057 52.3423C100.374 52.3423 102.405 54.701 102.377 59.0726" fill="#D01C15"/>
<path d="M116.566 56.7715V65.8654H113.168V57.6651C113.168 56.0846 112.22 55.2775 110.329 55.2775C109.381 55.2775 108.41 55.5081 107.322 56.0557V65.8654H103.925V52.6305H106.485L106.82 53.7258C108.433 52.8035 110.022 52.3423 111.523 52.3423C114.865 52.3423 116.561 53.8651 116.561 56.7715" fill="#D01C15"/>
<path d="M128.472 65.0584C127.301 65.7213 125.772 66.1489 124.243 66.1489C121.18 66.1489 119.54 64.4819 119.54 61.5755V55.7339H117.425V52.6258H119.54V48.3406L122.937 47.7354V52.6258H128.114V55.7339H122.937V61.5755C122.937 62.6708 123.634 63.3578 125.08 63.3578C126.028 63.3578 126.943 63.0407 127.668 62.666L128.477 65.0536L128.472 65.0584Z" fill="#D01C15"/>
<path d="M134.476 63.6171C135.508 63.6171 136.563 63.2135 137.567 62.5218V60.9413C136.563 60.5954 135.564 60.3936 134.504 60.3936C132.668 60.3936 131.943 60.8548 131.943 61.9741C131.916 63.1511 132.641 63.6123 134.476 63.6123M140.959 56.7955V65.8557H138.036L137.674 64.7652C136.312 65.774 134.36 66.1728 133.11 66.1439C130.103 66.0863 128.63 64.7364 128.63 62.0318C128.63 59.4713 130.215 58.0637 133.417 58.0349C134.974 58.0349 136.424 58.2366 137.562 58.669V57.5161C137.562 55.9356 136.698 55.215 134.221 55.215C132.524 55.1861 131.409 55.5032 130.047 56.022L129.434 53.2021C131.13 52.6256 132.943 52.3374 135.057 52.3374C139.147 52.3374 140.959 53.6873 140.959 56.7955Z" fill="#D01C15"/>
<path d="M154 61.979C154 64.5395 151.941 66.1488 148.154 66.1488C145.955 66.1488 143.841 65.5147 142.251 64.453L143.339 62.0078C144.729 62.8437 145.928 63.4442 147.735 63.4442C149.543 63.4442 150.491 63.1271 150.491 62.0078C150.491 59.7356 142.502 62.0367 142.502 56.5409C142.502 53.894 144.505 52.3423 148.07 52.3423C150.101 52.3423 152.02 52.9188 153.442 53.9516L152.355 56.1951C151.184 55.388 149.906 55.0421 148.405 55.0421C146.68 55.0421 145.788 55.388 145.788 56.5073C145.788 59.0966 154 56.7091 154 61.9742" fill="#D01C15"/>
<path d="M125.479 73.4747C125.479 73.0952 125.786 72.9751 126.376 72.9751C126.892 72.9751 127.334 73.0904 127.733 73.3642L128.105 72.6004C127.617 72.2497 126.957 72.0527 126.26 72.0527C125.038 72.0527 124.35 72.5812 124.35 73.4795C124.35 75.3434 127.092 74.5652 127.092 75.3338C127.092 75.7133 126.785 75.8238 126.144 75.8238C125.503 75.8238 125.112 75.6173 124.634 75.3338L124.262 76.1649C124.805 76.5252 125.53 76.7414 126.288 76.7414C127.585 76.7414 128.296 76.1937 128.296 75.3242C128.296 73.5372 125.479 74.349 125.479 73.4699" fill="#D01C15"/>
<path d="M129.913 72.1538H128.746V76.6455H129.913V72.1538Z" fill="#D01C15"/>
<path d="M133.254 72.0576C132.738 72.0576 132.195 72.2113 131.642 72.5284L131.525 72.1585H130.647V76.6502H131.813V73.3211C132.185 73.1385 132.52 73.0568 132.845 73.0568C133.496 73.0568 133.821 73.3307 133.821 73.8687V76.6502H134.988V73.5661C134.988 72.5812 134.407 72.0624 133.259 72.0624" fill="#D01C15"/>
<path d="M137.902 75.7953C137.404 75.7953 137.167 75.5599 137.167 75.19V73.2059H138.552C138.645 72.9705 138.771 72.7063 138.943 72.4853V72.1539H137.167V70.4917L136.001 70.6983V72.1539H135.276V73.2107H136.001V75.1948C136.001 76.1796 136.563 76.7464 137.614 76.7464C138.139 76.7464 138.664 76.6023 139.063 76.3765L138.785 75.5647C138.534 75.6896 138.222 75.8001 137.897 75.8001" fill="#D01C15"/>
<path d="M140.225 74.0513C140.318 73.3595 140.75 72.9656 141.485 72.9656C142.144 72.9656 142.516 73.3451 142.526 74.0513H140.225ZM141.419 72.0576C139.918 72.0576 139.068 72.8983 139.068 74.4019C139.068 75.9056 139.946 76.7463 141.503 76.7463C142.2 76.7463 142.897 76.5733 143.45 76.2563L143.172 75.406C142.772 75.651 142.237 75.7759 141.67 75.7759C140.885 75.7759 140.388 75.406 140.239 74.7815H143.594L143.604 74.3443C143.613 72.8599 142.851 72.0576 141.415 72.0576" fill="#D01C15"/>
<path d="M145.072 73.4747C145.072 73.0952 145.379 72.9751 145.969 72.9751C146.485 72.9751 146.927 73.0904 147.326 73.3642L147.698 72.6004C147.21 72.2497 146.55 72.0527 145.853 72.0527C144.631 72.0527 143.943 72.5812 143.943 73.4795C143.943 75.3434 146.685 74.5652 146.685 75.3338C146.685 75.7133 146.378 75.8238 145.742 75.8238C145.105 75.8238 144.71 75.6173 144.231 75.3338L143.859 76.1649C144.403 76.5252 145.128 76.7414 145.886 76.7414C147.182 76.7414 147.893 76.1937 147.893 75.3242C147.893 73.5372 145.077 74.349 145.077 73.4699" fill="#D01C15"/>
<path d="M149.506 72.1538H148.339V76.6455H149.506V72.1538Z" fill="#D01C15"/>
<path d="M151.184 73.4747C151.184 73.0952 151.49 72.9751 152.081 72.9751C152.596 72.9751 153.038 73.0904 153.438 73.3642L153.809 72.6004C153.321 72.2497 152.662 72.0527 151.964 72.0527C150.742 72.0527 150.054 72.5812 150.054 73.4795C150.054 75.3434 152.796 74.5652 152.796 75.3338C152.796 75.7133 152.49 75.8238 151.853 75.8238C151.216 75.8238 150.821 75.6173 150.342 75.3338L149.971 76.1649C150.514 76.5252 151.239 76.7414 151.997 76.7414C153.298 76.7414 154.005 76.1937 154.005 75.3242C154.005 73.5372 151.188 74.349 151.188 73.4699" fill="#D01C15"/>
<path d="M129.211 71.2986L128.746 71.4619V71.7934L128.965 71.7886L129.917 71.7693V71.6252V71.0439L129.829 71.0776L129.211 71.2986Z" fill="#D01C15"/>
</g>
<defs>
<clipPath id="clip0_1092_131">
<rect width="133" height="37" fill="white" transform="translate(21 41)"/>
</clipPath>
</defs>
</svg>
