<svg width="188" height="120" viewBox="0 0 188 120" fill="none" xmlns="http://www.w3.org/2000/svg">
<g clip-path="url(#clip0_9294_10004)">
<path fill-rule="evenodd" clip-rule="evenodd" d="M55.6102 44.9666V60.6865H60.5035V65.8233H50.0268C50.0268 65.8233 49.9641 50.7841 49.9641 45.9567C49.9641 40.6962 38.6718 40.8447 38.1699 48.8656C38.1186 49.6851 38.1821 50.6988 38.2117 51.7421C39.599 52.2489 40.6616 53.0666 40.8048 54.1262L40.6166 61.3673L24.6192 78.5106C24.1801 78.9438 23.5778 79.2532 22.9254 78.5106L11.194 67.7419C11.0476 67.5974 10.8427 67.2096 11.194 66.8135C11.5453 66.4174 21.2106 55.8384 25.9994 50.5985C26.1249 50.4541 26.5138 50.1529 27.0659 50.1034C27.6179 50.0539 32.0219 49.2575 34.1549 48.8656C34.7823 48.7503 35.0959 50.1034 34.4058 50.2271L27.3796 51.3411C27.2123 51.3824 26.8526 51.5268 26.7522 51.7744L12.6996 67.123L23.7409 77.3347L39.2364 61.0578L39.4246 54.7451C39.4246 54.3119 39.4493 53.8663 38.2116 53.3216C38.1185 55.5862 37.5004 57.592 34.7823 57.592C33.4648 57.592 31.8337 56.9112 31.8337 54.1262C31.8337 53.1358 32.712 51.1555 34.7823 51.1555C36.0997 51.1555 35.9999 51.2105 36.6016 51.3165C36.3329 47.5428 37.5294 44.2706 40.2402 42.4909C43.1108 40.6063 46.8627 40.6342 48.8348 41.8721C49.9013 42.6146 51.0933 44.1 51.0933 44.9666H55.6102ZM33.2139 54.3119C33.2139 52.5782 35.4514 52.517 36.6016 52.7027V54.7451C36.5388 56.6637 33.2139 56.478 33.2139 54.3119Z" fill="#E20A13"/>
<path fill-rule="evenodd" clip-rule="evenodd" d="M60.9427 65.8233H66.8397L67.3416 62.3574H71.3566L71.984 65.8233H77.8811L73.6778 44.9666H65.0204L60.9427 65.8233ZM70.6665 57.6538L69.4119 49.113L68.0317 57.6538H70.6665Z" fill="#E20A13"/>
<path fill-rule="evenodd" clip-rule="evenodd" d="M79.0103 45.0283V65.8232C86.2248 65.8232 91.1181 66.8752 93.6902 62.3573C95.2536 59.6113 93.7433 54.8687 90.5535 54.8687C91.3457 54.8687 91.8597 54.439 92.4983 53.8785C94.1292 52.447 93.9591 49.4555 93.3765 48.4322C91.8769 45.7982 89.9261 45.0283 86.8521 45.0283H79.0103ZM84.6564 53.1358V49.7938H86.4757C88.7342 49.7938 88.7969 53.1358 86.4757 53.1358H84.6564ZM84.6564 60.872V57.2205H86.4757C89.0478 57.2205 89.1106 60.872 86.4757 60.872H84.6564Z" fill="#E20A13"/>
<path d="M95.9487 45.0283H106.676V49.9176H101.658V52.8264H106.112V57.7775H101.658V60.872H106.676V65.8232H96.0114L95.9487 45.0283Z" fill="#E20A13"/>
<path d="M122.736 45.0283V49.8557H126.25V65.8232H131.958V49.8557H135.597V45.0283H122.736Z" fill="#E20A13"/>
<path d="M108.558 45.0283H114.267V60.872H119.035V65.8232H108.558V45.0283Z" fill="#E20A13"/>
<path d="M136.79 45.0283H147.517V49.9176H142.498V52.8264H146.953V57.7775H142.498V60.872H147.517V65.8232H136.852L136.79 45.0283Z" fill="#E20A13"/>
<path d="M161.444 45.5853V50.9697C159.75 49.3605 154.983 50.1651 154.983 54.8068C154.983 61.1814 157.743 61.7384 161.444 59.8817V65.5755C156.865 66.5658 148.646 67.8036 149.023 54.8068C149.127 50.2889 151.758 42.1195 161.444 45.5853Z" fill="#E20A13"/>
<path d="M163.138 45.0283H168.847V52.8264H172.235V45.0283H177.944V65.8232H172.235V57.53H168.847V65.8232H163.138V45.0283Z" fill="#E20A13"/>
<path d="M20.1023 67.1228C21.0725 67.1228 21.8589 66.3469 21.8589 65.3899C21.8589 64.4328 21.0725 63.657 20.1023 63.657C19.1322 63.657 18.3457 64.4328 18.3457 65.3899C18.3457 66.3469 19.1322 67.1228 20.1023 67.1228Z" fill="#E20A13" stroke="#E20A13"/>
<path d="M24.9329 58.7678C27.9442 60.5007 30.9554 67.061 25.372 71.9502" stroke="#E20A13" stroke-linecap="round"/>
<path d="M23.3018 60.5007C25.4215 61.7374 28.0114 66.6278 23.6782 70.0317" stroke="#E20A13" stroke-linecap="round"/>
<path d="M21.9216 62.4812C23.1898 63.236 24.7392 66.221 22.1468 68.2988" stroke="#E20A13" stroke-linecap="round"/>
</g>
<defs>
<clipPath id="clip0_9294_10004">
<rect width="167" height="38" fill="white" transform="translate(11 41)"/>
</clipPath>
</defs>
</svg>
