<svg width="155" height="120" viewBox="0 0 155 120" fill="none" xmlns="http://www.w3.org/2000/svg">
<path d="M98.5106 53.8848L98.7458 53.9632V54.1984H98.9026L99.1377 54.7471V55.2959H99.2945L99.3729 56.9423L99.2945 57.8831H99.1377V58.3534L99.0593 58.5102H98.9026V58.9022H98.7458L98.6674 59.2942H98.5106V59.5294H98.3538L98.2754 59.843H98.1186V60.0782H98.2754L98.3538 60.4702H98.5106V60.7054H98.6674L98.7458 61.0974H98.9026L98.981 61.411L99.1377 61.4894V62.1165H99.2945L99.3729 63.6845L99.2945 64.7037H99.1377V65.2525H98.981L98.9026 65.8012H98.7458V66.0364H98.5106V66.4284H98.3538L98.2754 66.6636H98.1186V66.8204H97.9618L97.8834 67.0556H97.7266V67.2124H97.5698L97.4914 67.4476H97.3346V67.6044L96.9426 67.6828V67.8396H96.7074V67.9964L96.1586 68.2316H95.7666V68.3884L94.7475 68.4668V68.6236H81.1062L81.0278 68.3884V65.2525L81.1062 65.0957L94.9043 65.0173V64.8605H95.1395V64.7037L95.6882 64.2333L95.7666 63.8413H95.9234V62.9005H95.7666V62.5085L95.5314 62.4301V62.2733H95.3746L95.1395 62.0381V61.8813H94.7475V61.7246H81.1062L81.0278 61.6462V58.3534L81.1062 58.275H94.7475V58.1183L95.5314 58.0399L95.7666 57.8831H96.1586V57.7263L96.5506 57.4911H96.7074V57.3343H96.9426V57.1775L97.1778 56.9423H97.3346V56.7855L97.5698 56.5503H97.7266V56.3151H97.8834L97.9618 55.9231H98.1186V55.5311H98.2754L98.3538 54.7471H98.5106V53.8848Z" fill="#E20A13"/>
<path d="M23.954 51.376H30.3043V54.9039L23.954 54.9823V55.1391H23.5621V55.2959L23.1701 55.3743V55.5311H23.0133L22.9349 55.7663H22.7781L22.6213 56.1582L22.5429 56.3934H22.3861V56.9422L22.3077 57.1774L22.2293 68.3883L22.1509 68.6235H18.8582L18.7798 68.4667V56.5502L18.9366 56.1582L19.015 55.5311H19.1718L19.2502 54.9823H19.407V54.5903H19.5638V54.3551L19.7206 54.2767L19.799 53.9631H19.9558L20.0342 53.7279H20.1909V53.4927H20.3477V53.3359H20.5829V53.1007H20.7397V52.9439H20.9749V52.7087L21.3669 52.5519V52.3951L21.7589 52.3168V52.16H22.1509V52.0032L22.5429 51.9248V51.768H23.0917V51.6112L23.4053 51.5328H23.954V51.376Z" fill="#E20A13"/>
<path d="M104.312 56.3154H104.469V58.9026H104.626L104.704 59.6865H104.861V60.3137H105.018L105.096 60.7057H105.253V61.0977H105.41L105.488 61.4897H105.645V61.7249H105.802L105.88 62.0385H106.037V62.2737H106.272V62.5089H106.429V62.6657H106.664V62.9009H106.821V63.0576H107.056V63.2928H107.291V63.4496H107.448V63.6064L107.84 63.6848V63.8416H108.075V63.9984L108.467 64.0768V64.2336L108.859 64.312V64.4688H109.251V64.6256L109.879 64.704V64.8608H110.663V65.0176L123.52 65.096V68.4671L123.441 68.6239H111.447V68.4671H110.663L110.192 68.3887V68.2319H109.487L109.251 68.0751L108.859 67.9967V67.8399H108.467V67.6831L108.075 67.6047V67.4479H107.683L107.448 67.2127V67.0559L107.056 66.9775V66.8207H106.821V66.664H106.664L106.429 66.4288V66.272L106.115 66.1936V66.0368H105.88V65.8016H105.723L105.645 65.488L105.41 65.4096V65.2528H105.253V65.0176H105.096L105.018 64.704H104.861V64.4688H104.704L104.626 64.0768H104.469V63.6848H104.312L104.234 63.2928H104.077V62.6657H103.92L103.842 62.1169H103.685V61.0977H103.528V58.9026H103.685V57.8834H103.842L103.92 57.1778H104.077V56.7074H104.234L104.312 56.3154Z" fill="#E20A13"/>
<path d="M35.3218 56.1582L35.4002 56.4718L35.3218 56.5502V58.3533L35.4786 58.6669V59.4509H35.6354L35.7138 60.0781H35.8706V60.4701H36.0274L36.1842 60.9405L36.2626 61.2541H36.4194L36.4978 61.6461H36.6546V61.8812H36.8114L37.0466 62.2732V62.43L37.2818 62.5084V62.6652H37.4386V62.822L37.6738 62.9004V63.0572H37.8306V63.214L38.2226 63.2924V63.4492H38.3794L38.6146 63.6844V63.8412L39.0066 63.9196V64.0764H39.2417V64.2332H39.6337V64.39L40.1825 64.4684V64.6252L40.8097 64.7036V64.8604H41.5937V65.0172L54.2941 65.0956V65.2524H54.4509V68.3883H54.2941V68.6235H42.3777V68.4667H41.5937L41.0449 68.3883V68.2315H40.4177L40.1825 68.0747L39.7905 67.9963V67.8395H39.3985V67.6827L39.0066 67.6043V67.4475H38.6146V67.2123H38.2226V67.0555L37.8306 66.8987L37.6738 66.8203V66.6635H37.4386V66.4283H37.2818V66.2715H37.0466V66.0363H36.8114V65.8795H36.6546V65.6443H36.4194V65.4092H36.2626L36.1842 65.0956H36.0274V64.8604H35.8706V64.6252H35.7138L35.6354 64.2332H35.4786L35.4002 63.8412H35.2435V63.4492H35.0867L35.0083 63.0572H34.8515V62.43H34.6947L34.6163 61.6461H34.4595V58.2749H34.6163L34.6947 57.491H34.8515V56.9422H35.0083L35.0867 56.3934L35.3218 56.1582Z" fill="#E20A13"/>
<path d="M59.2337 56.3154H59.4689V58.9026H59.6257L59.7041 59.6865H59.8609V60.3137H60.0177L60.0961 60.7057H60.2529V61.0977H60.4097L60.4881 61.4897H60.6448V61.7249H60.8016L60.88 62.0385H61.0368V62.2737H61.1936L61.4288 62.5089V62.6657H61.5856L61.8208 62.9009V63.0576L62.056 63.136V63.2928H62.2128V63.4496H62.448V63.6064L62.84 63.6848V63.8416L63.232 63.9984L63.3888 64.0768V64.2336L63.8592 64.312V64.4688H64.2512V64.6256L64.7999 64.704L64.8783 64.7824L65.6623 64.8608V65.0176L76.8732 65.096V68.4671H76.7164V68.6239H66.4463V68.4671H65.6623L65.1919 68.3887V68.2319H64.5647L64.016 67.9967V67.8399H63.4672L63.0752 67.6047V67.4479L62.6832 67.3695L62.448 67.2127V67.0559L62.056 66.9775V66.8207H61.8208V66.664L61.5856 66.5856V66.4288H61.4288V66.272H61.1936V66.1152H61.0368V65.88H60.8016V65.6448H60.6448V65.488L60.4097 65.4096V65.2528H60.2529V65.0176H60.0961L60.0177 64.704H59.8609V64.4688H59.7041L59.6257 64.0768H59.4689V63.6848L59.2337 63.6064V63.2928H59.0769L58.9985 62.6657H58.8417V62.0385H58.6849L58.5281 60.8625L58.4497 60.7057V59.2945L58.6065 58.5106L58.6849 57.8834H58.8417V57.3346L58.9985 57.0994L59.0769 56.7074H59.2337V56.3154Z" fill="#E20A13"/>
<path d="M111.211 51.376H123.52V54.9039L110.819 54.9823V55.1391H110.192V55.2959L109.8 55.3743V55.5311H109.408V55.6879L109.095 55.7663V55.9231H108.859V56.1582H108.624V56.315H108.467L108.389 56.5502H108.232V56.707H108.075V56.9422H107.84V57.3342H107.683L107.605 57.7262H107.448V58.1182H107.291L107.213 58.667H107.056V60.3133L106.899 60.4701L106.664 60.2349L106.586 59.7646L106.429 59.6862V59.2942H106.272L106.194 58.5102L106.037 58.1182V56.707L106.194 56.315L106.272 55.5311H106.429V55.1391H106.586L106.664 54.6687H106.821V54.3551L106.978 54.2767L107.056 53.9631H107.213L107.291 53.7279H107.448V53.4927H107.605V53.3359H107.84V53.1007H107.997V52.9439H108.232L108.389 52.6303L108.624 52.5519V52.3951L109.016 52.3168V52.16H109.408V52.0032L109.8 51.9248V51.768H110.349V51.6112L110.663 51.5328H111.211V51.376Z" fill="#E20A13"/>
<path d="M42.1427 51.376H54.2944V51.5328H54.4512V54.7471H54.2944V54.9039L41.594 54.9823V55.1391H41.0452V55.2959L40.6532 55.3743V55.5311H40.2612L40.1828 55.7663H40.026V55.9231H39.7908V56.0799L39.5556 56.315H39.3988V56.4718L39.1636 56.707H39.0068V56.9422H38.85V57.099L38.6932 57.1774L38.6148 57.491H38.458L38.3796 57.883H38.2228V58.3534H38.066V58.9022L37.9876 59.1374H37.8309V60.3133H37.6741L37.5957 59.9213H37.4389V59.5294H37.2821L37.2037 58.9022H37.0469V55.9231H37.2037L37.2821 55.2959H37.4389V54.7471H37.5957L37.6741 54.5119H37.8309V54.1199H37.9876L38.066 53.8847H38.2228V53.5711H38.458V53.3359H38.6148V53.1791L38.85 52.9439H39.0068V52.7871H39.242V52.5519H39.634V52.3168H39.8692V52.16H40.1828V52.0032L40.6532 51.9248V51.768H41.202V51.6112L41.594 51.5328H42.1427V51.376Z" fill="#E20A13"/>
<path d="M66.2109 51.376H76.873V54.9039L65.8189 54.9823V55.1391H65.1917V55.2959L64.7997 55.3743V55.5311H64.4077V55.6879L64.0157 55.7663V55.9231H63.8589L63.7805 56.1582H63.6238V56.315H63.3886V56.5502H63.2318V56.707H63.075L62.9966 57.099H62.8398L62.7614 57.3342H62.6046V57.7262H62.4478L62.3694 58.1182H62.2126V58.7454H62.0558L61.9774 60.4701L61.8206 60.1565H61.6638L61.5854 59.6862H61.4286V59.1374H61.2718L61.1934 58.9022V58.275H61.0366V56.5502H61.1934V55.9231L61.2718 55.5311H61.4286V55.1391H61.5854L61.6638 54.7471H61.8206V54.3551H61.9774L62.0558 53.9631H62.2126V53.7279H62.4478V53.4927H62.6046V53.3359H62.7614L62.8398 53.1007H62.9966V52.9439H63.2318V52.7087H63.3886V52.5519H63.6238V52.3951L64.0157 52.3168V52.16H64.4077V52.0032L64.7997 51.9248V51.768H65.3485V51.6112L65.6621 51.5328H66.2109V51.376Z" fill="#E20A13"/>
<path d="M81.1062 51.376H94.7475V51.5328L95.3746 51.6112V51.768H95.7666V51.9248H95.9234V52.16H96.1586V52.3168H96.3154V52.5519L96.5506 52.6303V53.0223H96.7074L96.7858 53.4927V54.5119L96.7074 54.9823H96.5506L96.4722 55.3743L96.3938 55.5311H96.1586L96.0802 55.9231H95.7666L95.6882 55.5311H95.5314V55.3743L95.2962 55.2959V55.1391H94.9827V54.9823L81.1062 54.9039L81.0278 54.7471V51.5328L81.1062 51.376Z" fill="#E20A13"/>
<path d="M127.675 51.376H131.046V65.0956H131.203L131.281 66.0364H131.438V66.4284H131.595L131.673 66.8988H131.83V67.2124H131.987L132.065 67.6043H132.222V67.8395H132.457V68.0747H132.614L132.692 68.3883L132.457 68.4667L132.065 68.3883V68.2315H131.516L131.046 67.9963V67.8395H130.654V67.6827L130.262 67.6043V67.4475H130.027V67.2124H129.87V67.0556H129.635V66.8988L129.4 66.8204V66.6636H129.243V66.5068H129.086V66.2716H128.851V66.0364H128.694L128.616 65.6444H128.459V65.4092H128.302L128.224 65.0172H128.067V64.4684H127.91L127.832 63.8412H127.675V51.376Z" fill="#E20A13"/>
<path d="M40.0258 58.2754H52.6478L52.7262 58.3538V61.6465L52.6478 61.7249H40.0258V61.4897H39.7906V61.0977H39.6338V58.9026H39.7906L39.869 58.3538L40.0258 58.2754Z" fill="#E20A13"/>
<path d="M109.094 58.2754H121.716V61.7249H109.251L109.016 61.6465V61.3329H108.859L108.781 60.7057H108.624V59.2946H108.781L108.859 58.5106H109.016L109.094 58.2754Z" fill="#E20A13"/>
<path d="M132.849 65.0176L144.295 65.096V68.4671H144.138V68.6239H136.612V68.4671L135.749 68.3887V68.2319H135.201V68.0751L134.809 67.9967V67.8399H134.573V67.6831L134.26 67.6047L134.025 67.3695V67.2127H133.868L133.789 66.8991H133.633V66.6639L133.397 66.5855V66.4287H133.241V66.0368H133.084L133.005 65.4096H132.849V65.0176Z" fill="#E20A13"/>
<path d="M10.8619 51.376H19.956V51.5328H19.7992V51.768H19.564V51.9248L19.3288 52.16H19.1721V52.3168H19.0153V52.5519H18.7801V52.7871H18.6233L18.5449 53.1007H18.3881V53.3359H18.2313L18.1529 53.7279H17.9961V54.1199H17.8393L17.7609 54.5119H17.6041V54.9039H10.8619V54.7471H10.7051V51.5328H10.8619V51.376Z" fill="#E20A13"/>
<path d="M20.0342 53.7275H20.1909L20.0342 54.2763H20.1909V54.9819H20.0342V55.1387H19.799V55.6875H19.9558L20.1125 56.5499L20.1909 57.3338V67.7608L19.9558 68.2311H19.5638V68.3879H21.9941V68.6231H18.8582L18.7798 68.4663V56.5499L18.9366 56.1579L19.015 55.5307H19.1718L19.2502 54.9819H19.407V54.5899H19.5638V54.3547L19.7206 54.2763L19.799 53.9627H19.9558L20.0342 53.7275Z" fill="#E20A13"/>
<path d="M24.4251 51.6113H30.1481V54.6688L30.0697 54.7472H26.385L24.3467 54.6688L24.5819 54.5121L26.0714 54.4337L25.9146 54.0417L25.6794 53.6497L25.993 53.2577L25.9146 52.5521L25.7578 52.3953L25.8362 52.0817L25.993 51.7681H24.5035L24.4251 51.6113Z" fill="#E20A13"/>
<path d="M23.9543 51.376H30.3045V54.9039L23.9543 54.9823V55.1391H23.5623V55.2959L22.9351 55.3743V55.5311H22.7783V55.2959H22.9351L23.0919 54.9039H23.3271V54.7471H23.1703V54.5903H23.3271V54.3551H22.9351L23.0135 54.1199H23.1703L22.9351 53.7279V52.8655L23.0135 52.5519L23.3271 52.2384V52.0032L22.7783 51.9248V51.768H23.0919V51.6112L23.4055 51.5328H23.9543V51.376ZM24.4247 51.6112L24.5031 51.768H25.9926L25.7574 52.16L25.8358 52.4735L25.9926 52.7871V53.2575L25.679 53.7279L25.9926 54.1199L26.071 54.4335L24.5815 54.5119L24.3463 54.6687L26.3846 54.7471H30.0693L30.1477 54.5119V51.6112H24.4247Z" fill="#E20A13"/>
<path d="M11.097 51.7681H13.9977L13.9193 52.0033V52.552L14.0761 52.7872L13.9977 53.1008L13.3705 53.4928L13.2921 53.6496L13.7625 53.728L14.3113 53.8848L14.5465 53.9632L14.4681 54.2768L13.7625 54.512H11.0186L11.097 51.7681Z" fill="#E20A13"/>
<path d="M40.0259 58.2754H52.6479L52.7263 58.3538V61.6465L52.6479 61.7249H40.0259V61.4897H52.4911V58.7458L52.5695 58.3538H40.0259V58.2754Z" fill="#E20A13"/>
<path d="M18.9366 56.1582H19.015V68.3883H21.9941V68.6235H18.8582L18.7798 68.4667V56.5502L18.9366 56.1582Z" fill="#E20A13"/>
<path d="M81.1062 51.376H94.7475V51.5328H95.1395V51.6112H81.1062V54.7471H81.0278V51.5328L81.1062 51.376Z" fill="#E20A13"/>
<path d="M81.0278 58.3535H81.1062V61.4894H94.3555V61.6462H94.7475V61.7246H81.1062L81.0278 61.6462V58.3535Z" fill="#E20A13"/>
<path d="M42.1425 51.376H54.2942V51.5328H54.451V54.7471H54.2942V51.6112H41.5938V51.5328H42.1425V51.376Z" fill="#E20A13"/>
<path d="M23.9542 51.376H30.3044V54.9039L23.9542 54.9823L24.111 54.9039V54.7471L30.0692 54.6687V51.768L30.1476 51.6112H23.5622V51.768H23.0918V51.6112L23.4054 51.5328H23.9542V51.376Z" fill="#E20A13"/>
<path d="M10.8619 51.376H19.956V51.5328H19.7992V51.768H19.564V51.9248L19.3288 52.16H19.1721V52.3168H19.0153V52.5519H18.7801V51.6112H10.8619V54.7471H10.7051V51.5328H10.8619V51.376Z" fill="#E20A13"/>
<path d="M109.016 61.4897H121.56V61.6465L121.717 61.7249H109.251L109.016 61.6465V61.4897Z" fill="#E20A13"/>
<path d="M133.633 65.0957H144.295V68.4668H144.139V65.2525H133.633V65.0957Z" fill="#E20A13"/>
<path d="M41.9857 54.7471H54.2942V54.9039L41.5938 54.9823V54.9039H41.9857V54.7471Z" fill="#E20A13"/>
<path d="M123.284 68.3882L123.52 68.4666L123.441 68.6234H111.446V68.4666L123.284 68.3882Z" fill="#E20A13"/>
<path d="M66.2109 51.376H76.8731V51.6112L66.2109 51.5328V51.376Z" fill="#E20A13"/>
<path d="M40.0259 58.2754H52.6479L52.7263 58.3538V61.6465L52.5695 61.3329L52.4911 60.4705V58.7458L52.5695 58.3538H40.0259V58.2754Z" fill="#E20A13"/>
<path d="M23.9542 51.376H30.3044L30.226 51.6112H23.5622V51.768H23.0918V51.6112L23.4054 51.5328H23.9542V51.376Z" fill="#E20A13"/>
<path d="M41.0454 68.2319H41.8294V68.3887H54.2947V68.4671H41.5942L41.0454 68.3887V68.2319Z" fill="#E20A13"/>
<path d="M110.192 68.2319H110.819V68.3887H123.284V68.4671H110.662L110.192 68.3887V68.2319Z" fill="#E20A13"/>
<path d="M110.662 51.5332H123.441V51.6116H110.819V51.7684H110.349V51.6116L110.662 51.5332Z" fill="#E20A13"/>
<path d="M22.3082 56.5503H22.3866L22.3082 57.1775L22.2298 68.3884H22.1514V56.7855L22.3082 56.5503Z" fill="#E20A13"/>
<path d="M123.363 65.2524H123.52V68.3884H123.363L123.285 68.2316V65.4876L123.363 65.2524Z" fill="#E20A13"/>
<path d="M123.285 51.7681H123.52V54.5904L123.285 54.512V51.7681Z" fill="#E20A13"/>
<path d="M52.5696 58.3535H52.7264V61.6462L52.5696 61.3326L52.4912 60.4703V58.7455L52.5696 58.3535Z" fill="#E20A13"/>
<path d="M59.2335 56.3154H59.4686V58.2754H59.3119L59.2335 58.1186V56.9426H59.0767V56.7074H59.2335V56.3154Z" fill="#E20A13"/>
<path d="M61.1934 55.9229H61.2718V58.902H61.1934V58.2748H61.0366V56.55H61.1934V55.9229Z" fill="#E20A13"/>
<path d="M19.0938 68.3882H21.9945V68.6234H20.8969V68.4666H19.0938V68.3882Z" fill="#E20A13"/>
<path d="M18.7798 51.6113H19.015V51.7681H19.1718V51.9249H19.3286V51.7681H19.5638V51.9249L19.3286 52.1601H19.1718V52.3169H19.015V52.5521H18.7798V51.6113Z" fill="#E20A13"/>
<path d="M58.6065 58.5103H58.6849V61.3326H58.6065L58.4497 60.7054V59.2942L58.6065 58.5103Z" fill="#E20A13"/>
<path d="M104.312 56.3154H104.469V58.1186H104.312L104.234 56.9426L104.077 56.8642V56.7074H104.234L104.312 56.3154Z" fill="#E20A13"/>
<path d="M106.194 56.3154H106.272L106.194 57.7266L106.272 58.5106L106.116 58.3538L106.037 58.1186V56.7074L106.194 56.3154Z" fill="#E20A13"/>
<path d="M108.781 59.0591H108.859V59.6863L108.781 59.7647L108.859 60.8622L108.781 60.7054H108.624V59.2943H108.781V59.0591Z" fill="#E20A13"/>
<path d="M58.6846 61.4897H58.9198V62.2737H59.0766V62.8225L58.9982 62.6657H58.8414V62.0385H58.6846V61.4897Z" fill="#E20A13"/>
<path d="M106.899 59.2944H107.056V60.3136L106.899 60.4704L106.664 60.2352V60.0784H106.821L106.899 59.2944Z" fill="#E20A13"/>
<path d="M61.9777 58.9023H62.0561L61.9777 60.4703L61.8209 60.1567L61.6641 60.0783H61.8209V59.4511L61.9777 58.9023Z" fill="#E20A13"/>
<path d="M61.1934 55.9229H61.2718V57.1772H61.0366V56.55H61.1934V55.9229Z" fill="#E20A13"/>
<path d="M41.0454 68.2319H41.8294V68.3887H42.3782V68.4671H41.5942L41.0454 68.3887V68.2319Z" fill="#E20A13"/>
<path d="M110.662 65.0176H111.446L111.995 65.096V65.2528H111.211V65.096H110.662V65.0176Z" fill="#E20A13"/>
<path d="M65.6621 65.0176H66.4461L66.9949 65.096V65.2528H66.2109V65.096H65.6621V65.0176Z" fill="#E20A13"/>
<path d="M41.5938 65.0176L42.8481 65.096V65.2528H41.9857V65.096H41.5938V65.0176Z" fill="#E20A13"/>
<path d="M99.138 57.3345H99.2948V57.8833H99.138V58.3536L99.0596 58.5104H98.9028L99.0596 57.4913L99.138 57.3345Z" fill="#E20A13"/>
<path d="M19.2503 54.9819H19.4071V55.3739H19.2503L19.1719 56.0011H19.0151V55.5307H19.1719L19.2503 54.9819Z" fill="#E20A13"/>
<path d="M104.469 58.9023H104.626L104.704 59.6863H104.861V59.9215H104.626V59.4511H104.469V58.9023Z" fill="#E20A13"/>
<path d="M35.2432 58.3535L35.4784 58.6671V59.4511L35.4 59.1375H35.2432V58.3535Z" fill="#E20A13"/>
<path d="M61.5851 54.9819L61.6635 55.2955L61.5851 55.3739L61.5067 55.9227H61.2715V55.5307H61.4283V55.1387H61.5851V54.9819Z" fill="#E20A13"/>
<path d="M110.192 68.2319H110.819V68.3887H111.446V68.4671H110.662L110.192 68.3887V68.2319Z" fill="#E20A13"/>
<path d="M19.4075 51.376H19.9563V51.5328H19.7995V51.768H19.5643V51.6112L19.3291 51.5328L19.4075 51.376Z" fill="#E20A13"/>
</svg>
