<svg width="155" height="120" viewBox="0 0 155 120" fill="none" xmlns="http://www.w3.org/2000/svg">
<g clip-path="url(#clip0_1092_134)">
<path d="M23.8184 56.4087C23.8184 53.8182 22.081 52.3945 18.9445 52.3945C17.3785 52.3945 16.1832 52.7425 15.0249 53.4148V59.5529C16.0488 60.0789 17.2766 60.3953 18.912 60.3953C22.0486 60.3953 23.823 58.9399 23.823 56.4087M27.8815 56.4087C27.8815 60.8026 25.0508 63.3931 19.9406 63.3931C17.9623 63.3931 16.3963 63.0451 15.0296 62.258V68.3407H10.8691V49.717H14.0057L14.4134 50.7927C16.0164 49.891 17.7538 49.4243 20.1722 49.4243C25.1156 49.452 27.8769 51.9278 27.8769 56.4087" fill="white"/>
<path d="M35.9524 60.8304C37.2126 60.8304 38.5098 60.4231 39.7376 59.723V58.1213C38.5098 57.7733 37.2821 57.5676 35.9895 57.5676C33.7378 57.5676 32.8529 58.0343 32.8529 59.1654C32.8205 60.3598 33.7054 60.8265 35.9524 60.8265M43.8934 53.9291V63.0966H40.3121L39.8673 61.9892C38.1948 63.0096 35.8088 63.4169 34.2753 63.3853C30.592 63.326 28.7852 61.9576 28.7852 59.2247C28.7852 56.6342 30.7264 55.2105 34.6505 55.1788C36.5593 55.1788 38.3338 55.3845 39.7283 55.8195V54.6568C39.7283 53.055 38.672 52.3273 35.6374 52.3273C33.5571 52.2996 32.195 52.62 30.5225 53.142L29.772 50.2905C31.8522 49.7092 34.0668 49.4165 36.6566 49.4165C41.6695 49.4165 43.8841 50.7849 43.8841 53.9251" fill="white"/>
<path d="M56.1612 53.8182C56.0917 52.6554 54.9706 51.9871 53.0247 51.9871C51.0788 51.9871 49.8557 52.6554 49.8557 53.8182C49.8557 54.9809 51.014 55.6216 53.0247 55.6216C55.0354 55.6216 56.1612 54.9216 56.1612 53.8182ZM53.539 62.3134C52.6865 62.3134 51.9359 62.2857 51.2225 62.2264C50.0272 62.432 49.1423 62.9541 49.1423 64.1484C49.1423 65.1965 50.7453 65.7502 53.6409 65.7502C56.5365 65.7502 58.1071 65.1688 58.1071 64.1484C58.1071 62.9857 56.5365 62.3173 53.539 62.3173M59.775 52.3944C59.9464 52.8295 60.0159 53.2961 60.0159 53.8221C60.0159 56.5866 57.5975 58.1884 52.9274 58.1884C52.0749 58.2161 51.292 58.1607 50.6109 58.042C50.0318 58.2161 49.7909 58.4494 49.7909 58.9161C49.7909 59.4381 50.8472 59.7308 53.576 59.7308C59.1681 59.7308 62.1656 61.3879 62.1656 64.271C62.1656 66.8615 59.1681 68.3169 53.8494 68.3169C48.2574 68.3169 45.0884 67.1225 45.0884 64.7377C45.0884 63.0213 46.5895 62.0326 48.2944 61.7399C46.9647 61.3049 46.1818 60.6048 46.1818 59.5568C46.1818 58.568 46.8304 57.8127 48.262 57.3737C46.7285 56.6183 45.9779 55.4239 45.9779 53.8221C45.9779 51.03 48.3639 49.4282 52.932 49.4282C55.2856 49.4282 57.0925 49.8356 58.2507 50.591C59.0013 49.7763 60.229 49.4282 61.4197 49.4282C61.9664 49.4282 62.6474 49.4875 63.1941 49.6022L62.8884 52.0741C61.9015 51.9594 60.6367 51.9277 59.7889 52.3944" fill="white"/>
<path d="M76.0601 56.4087C76.0601 53.8499 74.4246 52.4221 71.5244 52.4221C68.6241 52.4221 66.9562 53.8499 66.9562 56.4087C66.9562 58.9675 68.5917 60.3953 71.5244 60.3953C74.457 60.3953 76.0601 58.9675 76.0601 56.4087ZM62.9023 56.4087C62.9023 51.9278 66.0018 49.4243 71.5244 49.4243C77.0469 49.4243 80.1139 51.9278 80.1139 56.4087C80.1139 60.8896 77.0469 63.3931 71.5244 63.3931C66.0018 63.3931 62.9023 60.8896 62.9023 56.4087Z" fill="white"/>
<path d="M95.2175 59.1732C95.2175 61.7636 92.6971 63.3931 88.0595 63.3931C85.3677 63.3931 82.7733 62.7524 80.832 61.6766L82.1617 59.2048C83.8667 60.0472 85.3307 60.6602 87.5452 60.6602C89.7598 60.6602 90.9181 60.3399 90.9181 59.2048C90.9181 56.907 81.1332 59.2325 81.1332 53.6758C81.1332 50.9983 83.5887 49.4282 87.9483 49.4282C90.4362 49.4282 92.7898 50.0096 94.5272 51.0577L93.1975 53.3278C91.7659 52.5131 90.2 52.165 88.356 52.165C86.2434 52.165 85.15 52.5131 85.15 53.6481C85.15 56.2663 95.2036 53.8538 95.2036 59.1771" fill="white"/>
<path d="M112.341 53.9052V63.1004H108.18V54.8069C108.18 53.2052 107.022 52.3905 104.701 52.3905C103.543 52.3905 102.348 52.6238 101.018 53.1775V63.1004H96.8574V49.7169H99.994L100.402 50.8243C102.38 49.8949 104.321 49.4282 106.16 49.4282C110.251 49.4282 112.332 50.9706 112.332 53.9091" fill="#D01C15"/>
<path d="M126.458 55.3607C126.426 53.2646 125.096 52.1295 122.742 52.1295C120.115 52.1295 118.582 53.2923 118.244 55.3607H126.458ZM130.308 56.2347L130.276 57.5438H118.309C118.855 59.4066 120.625 60.51 123.423 60.51C125.434 60.51 127.343 60.1303 128.775 59.4026L129.761 61.9338C127.783 62.8632 125.295 63.3892 122.807 63.3892C117.252 63.3892 114.116 60.8857 114.116 56.4048C114.116 51.9239 117.15 49.4204 122.501 49.4204C127.853 49.4204 130.34 51.8052 130.308 56.2308" fill="#D01C15"/>
<path d="M144.295 62.2859C142.863 62.9543 140.987 63.3933 139.115 63.3933C135.367 63.3933 133.356 61.7045 133.356 58.766V52.8573H130.767V49.7132H133.356V45.3825L137.517 44.7695V49.7171H143.859V52.8613H137.517V58.77C137.517 59.8773 138.369 60.5734 140.144 60.5734C141.302 60.5734 142.428 60.2531 143.313 59.8734L144.3 62.2898L144.295 62.2859Z" fill="#D01C15"/>
<path d="M109.714 70.6585C109.714 70.2749 110.085 70.1602 110.803 70.1602C111.428 70.1602 111.961 70.2789 112.447 70.5518L112.897 69.7885C112.308 69.4365 111.507 69.2427 110.664 69.2427C109.181 69.2427 108.347 69.7726 108.347 70.6704C108.347 72.5371 111.674 71.7541 111.674 72.5292C111.674 72.9128 111.303 73.0196 110.525 73.0196C109.746 73.0196 109.274 72.814 108.695 72.5292L108.241 73.3597C108.899 73.7196 109.779 73.9372 110.696 73.9372C112.271 73.9372 113.129 73.3914 113.129 72.5213C113.129 70.7337 109.709 71.5444 109.709 70.6625" fill="white"/>
<path d="M115.088 69.3374H113.675V73.8341H115.088V69.3374Z" fill="white"/>
<path d="M119.138 69.2388C118.512 69.2388 117.85 69.397 117.183 69.7094L117.044 69.3376H115.978V73.8344H117.391V70.5004C117.84 70.3145 118.248 70.2354 118.642 70.2354C119.43 70.2354 119.823 70.5083 119.823 71.0462V73.8344H121.236V70.7456C121.236 69.7569 120.528 69.2388 119.142 69.2388" fill="white"/>
<path d="M124.776 72.9838C124.174 72.9838 123.887 72.7504 123.887 72.3787V70.3933H125.568C125.68 70.156 125.837 69.891 126.041 69.6696V69.3373H123.887V67.6763L122.474 67.8819V69.3373H121.593V70.3933H122.474V72.3787C122.474 73.3674 123.159 73.933 124.433 73.933C125.068 73.933 125.707 73.7866 126.194 73.5612L125.86 72.7504C125.559 72.877 125.175 72.9838 124.781 72.9838" fill="white"/>
<path d="M127.593 71.2321C127.709 70.5399 128.232 70.1484 129.122 70.1484C129.923 70.1484 130.373 70.532 130.382 71.2321H127.593ZM129.038 69.2388C127.222 69.2388 126.189 70.0812 126.189 71.584C126.189 73.0869 127.255 73.9293 129.14 73.9293C129.988 73.9293 130.831 73.7553 131.503 73.4389L131.165 72.5886C130.678 72.8338 130.03 72.9604 129.349 72.9604C128.399 72.9604 127.797 72.5886 127.611 71.9637H131.674L131.688 71.5247C131.698 70.0377 130.771 69.2388 129.038 69.2388Z" fill="white"/>
<path d="M133.467 70.6585C133.467 70.2749 133.838 70.1602 134.556 70.1602C135.182 70.1602 135.714 70.2789 136.201 70.5518L136.65 69.7885C136.062 69.4365 135.26 69.2427 134.417 69.2427C132.935 69.2427 132.101 69.7726 132.101 70.6704C132.101 72.5371 135.427 71.7541 135.427 72.5292C135.427 72.9128 135.057 73.0196 134.278 73.0196C133.5 73.0196 133.027 72.814 132.448 72.5292L131.994 73.3597C132.652 73.7196 133.532 73.9372 134.45 73.9372C136.025 73.9372 136.882 73.3914 136.882 72.5213C136.882 70.7337 133.463 71.5444 133.463 70.6625" fill="white"/>
<path d="M138.842 69.3374H137.429V73.8341H138.842V69.3374Z" fill="white"/>
<path d="M140.876 70.6585C140.876 70.2749 141.246 70.1602 141.964 70.1602C142.59 70.1602 143.123 70.2789 143.609 70.5518L144.059 69.7885C143.47 69.4365 142.669 69.2427 141.825 69.2427C140.343 69.2427 139.509 69.7726 139.509 70.6704C139.509 72.5371 142.831 71.7541 142.831 72.5292C142.831 72.9128 142.46 73.0196 141.686 73.0196C140.913 73.0196 140.435 72.814 139.856 72.5292L139.402 73.3597C140.065 73.7196 140.94 73.9372 141.858 73.9372C143.433 73.9372 144.29 73.3914 144.29 72.5213C144.29 70.7337 140.876 71.5444 140.876 70.6625" fill="white"/>
<path d="M114.241 68.4792L113.675 68.6453V68.9736L113.939 68.9696L115.093 68.9498V68.8074V68.2261L114.986 68.2577L114.241 68.4792Z" fill="white"/>
<path d="M101.009 72.209C101.009 71.4615 100.499 71.0462 99.6047 71.0462C99.1924 71.0462 98.7708 71.149 98.4094 71.3428V72.9841C98.8078 73.2175 99.2294 73.348 99.5955 73.348C100.499 73.348 101.009 72.9406 101.009 72.209ZM101.801 72.209C101.801 73.3045 101.078 73.9294 99.7854 73.9294C99.2711 73.9294 98.7523 73.783 98.3306 73.522L98.2102 73.8779H97.5986V69.2981L98.4094 69.1953V70.7733C98.8217 70.5756 99.3221 70.4609 99.8317 70.4609C101.097 70.4688 101.801 71.0937 101.801 72.205" fill="#D01C15"/>
<path d="M106.17 70.5357L104.224 74.2415C103.854 74.9533 103.409 75.1867 102.811 75.1867C102.459 75.1867 102.13 75.1155 101.88 74.981L102.061 74.5143C102.269 74.6172 102.501 74.6725 102.705 74.6725C103.015 74.6725 103.219 74.5855 103.488 74.1703L103.65 73.9172L101.861 70.5317H102.672L104.034 73.2725L105.359 70.5317H106.17V70.5357Z" fill="#D01C15"/>
</g>
<defs>
<clipPath id="clip0_1092_134">
<rect width="133.59" height="30.4608" fill="white" transform="translate(10.7051 44.7695)"/>
</clipPath>
</defs>
</svg>
