<svg width="155" height="120" viewBox="0 0 155 120" fill="none" xmlns="http://www.w3.org/2000/svg">
<path d="M118.271 11.8435L118.575 12.2482L119.182 14.5751L119.587 16.6996L119.688 18.4195V20.1394L119.587 21.8592L118.98 24.7931L118.271 26.8165L117.563 28.3341L116.754 29.8516L115.945 31.0656L114.933 32.3808L113.516 33.8984L112.1 35.2136L110.785 36.2253L109.065 37.3381L106.94 38.5521L104.209 39.9685L101.579 41.1825L97.7341 42.7001L94.5979 43.8129L89.1347 45.4316L80.4342 47.6574L77.8038 48.2644L72.4418 49.5796L67.3834 50.7936L60.6051 52.5135L54.8384 54.031L50.4881 55.3462L47.5542 56.3579L45.025 57.3696L43.0016 58.2801L40.5736 59.4941L38.1455 60.9105L36.4256 62.0234L34.7058 63.2374L33.5929 64.1479L32.2777 65.3619L31.4684 66.1713L31.3672 66.3736H31.1649L30.9625 66.7783L29.6473 68.1947L28.7368 69.3075L25.9041 72.7473L24.69 74.1636L24.5889 73.8601L24.9935 71.8368L25.7017 69.004L26.6122 65.8678L27.5228 63.3386L28.6356 60.7082L29.8497 58.1789L31.266 55.7509L32.5812 53.8287L33.5929 52.5135L34.7058 51.1983L35.8186 49.9842L37.3362 48.4667L38.449 47.5562L39.6631 46.5445L41.0794 45.5328L42.597 44.5211L45.2274 43.0036L47.5542 41.8907L49.0718 41.1825L50.4881 40.5755L53.5232 39.3615L56.4571 38.3498L59.2899 37.4393L62.7296 36.4276L66.4729 35.4159L70.8231 34.303L72.3407 33.8984L79.3213 32.1785L85.7961 30.4586L89.3371 29.4469L92.4733 28.4352L95.4072 27.4235L98.5434 26.2095L102.084 24.5908L104.108 23.5791L106.536 22.1628L108.155 21.1511L110.178 19.7347L111.594 18.6218L112.909 17.509L113.921 16.5985L115.034 15.5868L115.742 14.7774L116.45 14.0692L117.159 13.2599L118.271 11.8435Z" fill="#E20A13"/>
<path d="M117.26 39.3616H117.462L117.361 40.6768L117.057 43.1048L116.551 45.027L116.045 46.3422L115.135 47.9609L114.326 49.0738L113.415 50.1867L111.999 51.603L110.886 52.5136L109.571 53.5252L108.053 54.5369L106.536 55.4475L104.715 56.4591L103.096 57.2685L100.263 58.4825L96.2163 59.8989L92.7766 60.9106L89.5392 61.7199L83.6714 63.1363L76.4884 64.8562L74.1615 65.4632L71.9358 65.969L65.4609 67.5877L59.9978 69.0041L56.8616 69.8135L54.3323 70.5216L51.6008 71.4322L49.0716 72.4439L46.6435 73.5567L44.7213 74.5684L42.9002 75.6813L41.2815 76.7941L39.6628 78.0082L38.1453 79.4245L37.3359 80.2339L36.2231 81.7514L35.4137 83.2689L35.0091 84.3818L34.7055 85.697V88.8332L35.2114 90.8566L35.7172 92.6777L35.6161 92.88L34.0985 91.7671L33.0868 91.059L31.1646 89.6426L30.1529 88.7321L29.9506 88.6309V88.4286H29.7483V88.2262H29.5459L28.6354 87.1134L27.826 85.7982L27.3202 84.5841L27.0167 83.3701L26.9155 82.4596V80.7397L27.1179 79.121L27.6237 77.1988L28.3319 75.2766L29.3436 73.3544L30.0518 72.3427L31.1646 70.9263L32.8845 69.2064L33.9974 68.2959L35.6161 67.0819L38.1453 65.4632L41.0792 63.8445L43.5073 62.6305L46.5423 61.3153L50.2856 59.8989L53.9277 58.6849L59.1885 57.1673L61.92 56.4591L64.1457 55.9533L66.8773 55.2451L69.5077 54.6381L73.3521 53.7276L76.6907 52.9182L80.3328 52.1089L83.2667 51.4007L95.7105 48.4668L99.3526 47.5563L101.882 46.8481L105.524 45.6341L108.154 44.6224L110.785 43.5095L112.909 42.2955L117.158 39.4627L117.26 39.3616Z" fill="#B1454E"/>
<path d="M130.31 53.2217H130.411L130.31 54.638L129.906 56.8638L129.501 58.2801L128.793 59.8988L128.186 61.0117L127.174 62.4281L126.061 63.6421L125.049 64.6538L123.937 65.5643L122.217 66.7783L120.598 67.79L118.17 69.1052L115.742 70.2181L112.909 71.3309L108.964 72.545L106.232 73.2532L103.399 73.8602L100.769 74.366L98.7455 74.7707L83.469 77.7046L72.9474 79.8291L66.7761 81.1443L63.4375 82.0549L61.0094 82.8642L58.4802 83.8759L56.6592 84.6853L54.4334 85.8993L52.7136 86.911L50.6902 88.3273L49.5773 89.2379L47.9586 90.8566L46.9469 92.2729L46.1376 93.8916L45.6317 95.5104L45.5306 96.1174V99.0513L46.1376 101.884L46.2387 102.693L45.8341 102.491L44.3165 101.277L43.0013 100.265L40.8768 98.4443L39.9663 97.3314L39.2581 96.3197L38.6511 95.1057L38.2464 93.9928L37.9429 92.5764V89.2379L38.2464 87.6192L38.9546 85.4946L39.5616 84.0782L40.3709 82.8642L41.585 81.4479L42.3943 80.7397L43.7095 79.728L45.1259 78.8175L46.9469 77.8058L49.4761 76.5917L52.1065 75.58L54.9393 74.5684L58.2779 73.5567L61.3129 72.7473L65.7644 71.6345L69.71 70.7239L72.5427 70.1169L78.5117 68.9029L82.0526 68.1947L89.2356 66.7783L92.0683 66.1713L93.5859 65.8678L98.8467 64.755L103.602 63.6421L107.244 62.7316L111.594 61.5175L115.135 60.4047L118.473 59.1907L121.003 58.179L123.633 56.9649L125.859 55.7509L128.388 54.3345L130.31 53.2217Z" fill="#C79292"/>
<path d="M109.267 76.7939H109.368V78.2103L108.964 79.5255L108.357 80.7395L107.547 81.8524L106.333 83.2688L105.524 83.9769L104.512 84.7863L102.995 85.798L101.073 86.8097L98.5434 87.7202L96.1153 88.4284L90.6522 89.7436L88.2241 90.3506L84.582 91.16L80.1306 92.1716L76.9943 92.8798L66.9786 95.2067L62.6283 96.3196L60.8073 96.9266L59.2898 97.7359L57.9746 98.6465L56.9629 99.4558L56.8617 99.6582H56.6594L56.457 100.063L55.5465 101.277L55.0407 102.39L54.7372 103.401L54.636 103.907V106.538L54.8383 108.156L53.7255 107.448L52.3091 106.335L51.0951 105.121L50.0834 103.705L49.4764 102.491L49.1729 101.277V99.4558L49.5775 97.9383L50.2857 96.5219L51.1962 95.3079L52.3091 94.0939L53.5231 92.981L55.1418 91.767L56.6594 90.7553L59.3909 89.3389L61.3131 88.5296L63.2354 87.8214L65.5622 87.1132L68.395 86.405L74.7686 85.0898L77.2979 84.584L79.9282 84.0781L82.3563 83.5723L90.4498 81.9536L96.9247 80.5372L100.769 79.6267L104.512 78.615L107.547 77.6033L109.267 76.7939Z" fill="white"/>
</svg>
