<svg width="183" height="150" viewBox="0 0 183 150" fill="none" xmlns="http://www.w3.org/2000/svg">
<path fill-rule="evenodd" clip-rule="evenodd" d="M49.0642 13.2936C46.5585 -2.29784 112.447 -5.78845 114.192 13.2936L113.321 59.3337H91.0317L90.6834 10.3173C89.2903 5.47632 73.792 6.56558 73.792 10.3173V59.3337C73.9661 61.8753 81.2858 67.2396 93.9921 71.6786C94.6434 71.8903 95.2806 72.096 95.9036 72.2971C106.405 75.6869 112.85 77.7674 114.192 85.1127C114.192 85.1127 113.147 117.669 114.192 135.581C115.237 153.494 83.687 152.671 73.2696 144.174H71.8764V148.38H48.5418L49.0642 13.2936ZM73.2696 134.286C73.2696 125.693 73.6179 72.8037 73.6179 72.8037C75.9623 74.0627 78.4698 74.9706 80.821 75.8218C86.1541 77.7527 90.6834 79.3925 90.6834 84.1803V134.286C90.6834 143 73.2696 142.879 73.2696 134.286Z" fill="#FF0000"/>
<path d="M154.171 1.10805e-05H130.921V148.38H183V136.52H154.171V1.10805e-05Z" fill="#FF0000"/>
<path d="M0 146.928V139.666C10.3928 138.55 14.976 139.061 14.976 131.437V0H37.9624L37.6141 134.911C37.6141 144.992 33.957 148.38 18.2845 148.38H4.00519C1.66308 148.332 0.380251 148.284 0 146.928Z" fill="#FF0000"/>
</svg>
