<svg width="188" height="120" viewBox="0 0 188 120" fill="none" xmlns="http://www.w3.org/2000/svg">
<mask id="mask0_473_216" style="mask-type:luminance" maskUnits="userSpaceOnUse" x="53" y="10" width="83" height="100">
<path d="M135.682 69.7224V78.4872C135.682 86.2599 129.346 92.6058 121.585 92.6058H107.367L98.562 107.635C98.1405 108.354 97.5387 108.949 96.8165 109.363C96.0942 109.778 95.2765 109.995 94.4443 109.995C93.6122 109.995 92.7945 109.778 92.0722 109.363C91.35 108.949 90.7483 108.354 90.3267 107.635L81.5216 92.6058H67.3033C59.5429 92.6058 53.207 86.2599 53.207 78.4872V69.7224H62.799V78.4872C62.8097 79.6791 63.2881 80.819 64.1309 81.6606C64.9737 82.5022 66.1132 82.9779 67.3033 82.985H84.2486C85.1586 82.9871 86.0493 83.2473 86.8176 83.7355C87.586 84.2237 88.2005 84.9199 88.5901 85.7435L94.4376 95.7448L100.299 85.7435C100.688 84.9199 101.303 84.2237 102.071 83.7355C102.839 83.2473 103.73 82.9871 104.64 82.985H121.585C122.774 82.9779 123.912 82.5017 124.753 81.6598C125.594 80.8178 126.069 79.6779 126.076 78.4872V69.7224H135.682ZM94.4376 10H121.585C129.346 10 135.682 16.3459 135.682 24.1187V32.8834H126.076V24.1187C126.073 22.9256 125.599 21.7822 124.758 20.9373C123.917 20.0924 122.777 19.6144 121.585 19.6072H67.3033C66.1109 19.6144 64.9693 20.092 64.1261 20.9365C63.283 21.781 62.8061 22.9244 62.799 24.1187V32.8834H53.207V24.1187C53.207 16.3459 59.5429 10 67.3033 10H94.4376Z" fill="white"/>
</mask>
<g mask="url(#mask0_473_216)">
<path d="M135.682 10H53.207V110.002H135.682V10Z" fill="#D01C15"/>
</g>
<mask id="mask1_473_216" style="mask-type:luminance" maskUnits="userSpaceOnUse" x="53" y="69" width="74" height="41">
<path d="M126.076 78.4876V87.4154C126.076 88.7898 125.532 90.108 124.563 91.0811C123.594 92.0542 122.279 92.6027 120.907 92.6063H107.367L98.562 107.635C96.7304 110.788 92.1583 110.788 90.3267 107.635L81.5216 92.6063H67.3033C59.5429 92.6063 53.207 86.2604 53.207 78.4876V69.7229H62.799V78.4876C62.8097 79.6796 63.2881 80.8195 64.1309 81.6611C64.9737 82.5027 66.1132 82.9784 67.3033 82.9855H84.2486C85.1586 82.9876 86.0493 83.2478 86.8176 83.736C87.586 84.2242 88.2005 84.9204 88.5901 85.744L94.4376 95.7453L100.299 85.744C100.688 84.9204 101.303 84.2242 102.071 83.736C102.839 83.2478 103.73 82.9876 104.64 82.9855H121.585C122.774 82.9784 123.912 82.5022 124.753 81.6602C125.594 80.8182 126.069 79.6783 126.076 78.4876Z" fill="white"/>
</mask>
<g mask="url(#mask1_473_216)">
<path d="M126.076 69.7229H53.207V110.796H126.076V69.7229Z" fill="#D01C15"/>
</g>
<mask id="mask2_473_216" style="mask-type:luminance" maskUnits="userSpaceOnUse" x="62" y="10" width="74" height="23">
<path d="M94.4335 10H121.581C129.342 10 135.678 16.3459 135.678 24.1187V32.8834H126.072V24.1187C126.068 22.9256 125.595 21.7822 124.754 20.9373C123.913 20.0924 122.772 19.6144 121.581 19.6072H67.2992C66.1068 19.6144 64.9652 20.092 64.1221 20.9365C63.2789 21.781 62.802 22.9244 62.7949 24.1187V15.1909C62.7985 13.8153 63.3457 12.497 64.3168 11.5243C65.288 10.5516 66.6041 10.0036 67.9776 10H94.4335Z" fill="white"/>
</mask>
<g mask="url(#mask2_473_216)">
<path d="M135.664 10H62.7949V32.8848H135.664V10Z" fill="#D01C15"/>
</g>
<path d="M10.8887 50.9427V50.6166C10.8887 43.7679 15.9763 39.4467 22.4072 39.4467C28.2275 39.4467 33.2337 42.7895 33.2337 50.4535V52.3695H18.2556C18.4591 55.1824 20.0872 56.813 22.6921 56.813C25.297 56.813 26.111 55.7124 26.3959 54.2855H33.2337C32.5825 59.0959 28.8787 61.8273 22.4479 61.8273C15.7728 61.8273 10.8887 57.9137 10.8887 50.9427ZM26.1517 48.2521C26.0296 45.6839 24.7679 44.2571 22.4072 44.2571C20.0465 44.2571 18.7033 45.6839 18.337 48.2521H26.1517Z" fill="white"/>
<path d="M35.3496 40.0174H42.6352V43.4417C43.7748 41.2404 46.0948 39.4467 49.6358 39.4467C53.7466 39.4467 56.5957 42.0149 56.5957 47.4776V61.3381H49.3102V48.9452C49.3102 46.54 48.3741 45.3578 46.2576 45.3578C44.1411 45.3578 42.6352 46.6623 42.6352 49.3936V61.3381H35.3496V40.0174Z" fill="white"/>
<path d="M58.5508 61.3381H65.7956C66.1212 62.8872 67.0574 64.1102 69.703 64.1102C72.9184 64.1102 74.2208 62.2757 74.2208 59.6259V56.3646C73.5779 57.5532 72.6251 58.5449 71.464 59.2341C70.3029 59.9233 68.9769 60.2841 67.6272 60.2782C62.6616 60.2782 58.5915 56.6092 58.5915 50.0459V49.7197C58.5915 43.4417 62.6209 39.4467 67.6272 39.4467C71.0054 39.4467 72.9998 40.8735 74.2208 43.0341V40.0174H81.5064V59.5444C81.5064 65.9039 77.3141 69.2467 69.703 69.2467C62.4581 69.2467 59.1206 66.1893 58.5508 61.3381ZM74.4243 50.0051V49.7197C74.4243 46.7846 72.9184 44.9093 70.2321 44.9093C67.5458 44.9093 66.0398 46.8253 66.0398 49.7605V50.0866C66.0398 53.0218 67.5865 54.897 70.1914 54.897C72.7963 54.897 74.4243 53.0218 74.4243 50.0051Z" fill="white"/>
<path d="M83.5801 55.427C83.5801 50.4128 87.813 48.456 94.8951 48.456H96.9301V47.9668C96.9301 45.9285 96.4417 44.5832 94.1217 44.5832C92.1274 44.5832 91.3948 45.7654 91.2319 47.1107H84.3941C84.7197 41.9742 88.7492 39.4467 94.5695 39.4467C100.39 39.4467 104.175 41.8519 104.175 47.5184V61.3381H97.093V58.8514C96.0754 60.4005 94.2032 61.8273 90.7842 61.8273C86.9583 61.8273 83.5801 59.952 83.5801 55.427ZM96.9301 53.8779V52.5734H95.0172C92.0867 52.5734 90.7842 53.1441 90.7842 54.897C90.7842 56.12 91.5983 56.8946 93.3077 56.8946C95.3835 56.8946 96.9301 55.7124 96.9301 53.8779Z" fill="white"/>
<path d="M106.129 61.3381H113.374C113.699 62.8872 114.636 64.1102 117.281 64.1102C120.497 64.1102 121.799 62.2757 121.799 59.6259V56.3646C121.156 57.5532 120.203 58.5449 119.042 59.2341C117.881 59.9233 116.555 60.2841 115.205 60.2782C110.24 60.2782 106.17 56.6092 106.17 50.0459V49.7197C106.17 43.4417 110.199 39.4467 115.205 39.4467C118.584 39.4467 120.578 40.8735 121.799 43.0341V40.0174H129.085V59.5444C129.085 65.9039 124.892 69.2467 117.281 69.2467C110.036 69.2467 106.699 66.1893 106.129 61.3381ZM122.002 50.0051V49.7197C122.002 46.7846 120.497 44.9093 117.81 44.9093C115.124 44.9093 113.618 46.8253 113.618 49.7605V50.0866C113.618 53.0218 115.165 54.897 117.77 54.897C120.374 54.897 122.002 53.0218 122.002 50.0051Z" fill="white"/>
<path d="M131.242 50.9427V50.6166C131.242 43.7679 136.33 39.4467 142.761 39.4467C148.581 39.4467 153.587 42.7895 153.587 50.4535V52.3695H138.609C138.813 55.1824 140.441 56.813 143.046 56.813C145.447 56.813 146.465 55.7124 146.749 54.2855H153.587C152.936 59.0959 149.232 61.8273 142.801 61.8273C136.126 61.8273 131.242 57.9137 131.242 50.9427ZM146.505 48.2521C146.383 45.6839 145.121 44.2571 142.761 44.2571C140.4 44.2571 139.057 45.6839 138.691 48.2521H146.505Z" fill="white"/>
<path d="M154.645 50.9021V50.576C154.645 43.3196 158.633 39.4468 163.68 39.4468C167.018 39.4468 169.012 40.8737 170.233 43.0343V30.6414H177.519V61.3383H170.233V57.8732C169.175 60.0745 166.814 61.8275 163.599 61.8275C158.674 61.8275 154.645 58.2808 154.645 50.9021ZM170.437 50.7798V50.4537C170.437 46.8663 168.931 44.9503 166.244 44.9503C163.558 44.9503 162.052 46.7848 162.052 50.4945V50.8206C162.052 54.408 163.64 56.2425 166.163 56.2425C168.687 56.2425 170.437 54.408 170.437 50.7798Z" fill="white"/>
</svg>
