<svg width="1430" height="1117" viewBox="0 0 1430 1117" fill="none" xmlns="http://www.w3.org/2000/svg">
<path opacity="0.0526316" d="M-202.547 1348.35C-165.219 1398.01 -45.9143 1481.11 132.679 1416.23C355.921 1335.12 442.261 1120.14 641.508 1008.67C788.566 926.396 1183.72 802.898 1410.94 939.365" stroke="white" stroke-width="3"/>
<path opacity="0.105263" d="M-239.365 1244.23C-207.432 1297.52 -97.4682 1392.64 86.9289 1346.78C317.425 1289.46 425.764 1084.68 635.571 994.647C790.425 928.195 1196.32 846.678 1408.03 1006.15" stroke="white" stroke-width="3"/>
<path opacity="0.157895" d="M-267.18 1138.72C-240.993 1195.06 -141.574 1301.15 46.6065 1274.81C281.832 1241.9 410.983 1049.56 629.052 981.955C790.003 932.054 1202.2 893.411 1396.08 1074.14" stroke="white" stroke-width="3"/>
<path opacity="0.210526" d="M-285.9 1032.75C-265.746 1091.51 -177.961 1207.42 11.9415 1200.9C249.319 1192.75 397.867 1014.97 621.808 970.523C787.094 937.72 1201.07 942.375 1375 1142.38" stroke="white" stroke-width="3"/>
<path opacity="0.263158" d="M-295.517 927.273C-281.615 987.824 -206.426 1112.27 -16.8832 1125.64C220.046 1142.34 386.363 981.066 613.723 960.273C781.532 944.926 1192.75 992.828 1344.82 1209.91" stroke="white" stroke-width="3"/>
<path opacity="0.315789" d="M-296.135 823.247C-288.639 884.919 -226.87 1016.54 -39.7622 1049.65C194.122 1091.03 376.387 948.021 604.675 951.107C773.169 953.385 1177.13 1044.01 1305.67 1275.8" stroke="white" stroke-width="3"/>
<path opacity="0.368421" d="M-287.957 721.598C-286.949 783.716 -239.276 921.073 -56.654 973.557C171.624 1039.16 367.838 915.986 594.553 942.918C761.886 962.796 1154.16 1095.15 1257.77 1339.11" stroke="white" stroke-width="3"/>
<path opacity="0.421053" d="M-271.281 623.236C-276.771 685.119 -243.717 826.707 -67.5818 897.992C152.588 987.098 360.602 885.108 583.26 935.59C747.599 972.85 1123.89 1145.48 1201.43 1398.94" stroke="white" stroke-width="3"/>
<path opacity="0.473684" d="M-246.496 529.029C-258.425 589.999 -240.352 734.266 -72.6326 823.572C137.017 935.204 354.553 855.516 570.714 928.996C730.257 983.23 1086.44 1194.25 1137.07 1454.42" stroke="white" stroke-width="3"/>
<path opacity="0.526316" d="M-214.079 439.802C-232.315 499.191 -229.422 644.557 -71.9561 750.906C124.876 883.841 349.55 827.328 556.847 923C709.847 993.614 1042.02 1240.71 1065.18 1504.75" stroke="white" stroke-width="3"/>
<path opacity="0.578947" d="M-174.598 356.325C-198.942 413.482 -211.26 558.355 -65.7729 680.58C116.085 833.361 345.436 800.643 541.596 917.459C686.377 1003.68 990.906 1284.14 986.332 1549.15" stroke="white" stroke-width="3"/>
<path opacity="0.631579" d="M-128.686 279.308C-158.871 333.608 -186.264 476.399 -54.3506 613.162C110.541 784.116 342.056 775.55 524.931 912.232C659.906 1013.11 933.451 1323.87 901.2 1586.95" stroke="white" stroke-width="3"/>
<path opacity="0.684211" d="M-77.0548 209.386C-112.751 260.233 -154.92 399.379 -38.0242 549.181C108.095 736.434 339.236 752.115 506.822 907.164C630.514 1021.6 870.076 1359.25 810.503 1617.52" stroke="white" stroke-width="3"/>
<path opacity="0.736842" d="M-20.4792 147.115C-61.2948 193.952 -117.777 327.928 -17.1807 489.129C108.565 690.63 336.801 730.386 487.262 902.102C598.313 1028.84 801.27 1389.68 715.027 1640.31" stroke="white" stroke-width="3"/>
<path opacity="0.789474" d="M40.2172 92.9755C-5.27069 135.29 -75.4477 262.628 7.7475 433.46C111.742 647.002 334.572 710.397 466.259 896.9C563.455 1034.55 727.581 1414.63 615.612 1654.87" stroke="white" stroke-width="3"/>
<path opacity="0.842105" d="M104.156 47.3495C54.4939 84.6775 -28.6091 203.982 36.2735 382.575C117.377 605.817 332.359 692.157 443.831 891.404C526.105 1038.46 649.603 1433.62 513.136 1660.84" stroke="white" stroke-width="3"/>
<path opacity="0.894737" d="M170.431 10.5304C117.14 42.4629 22.0211 152.427 67.8801 336.824C125.204 567.321 329.984 675.66 420.018 885.467C486.469 1040.32 567.986 1446.22 408.516 1657.93" stroke="white" stroke-width="3"/>
<path opacity="0.947368" d="M238.113 -17.2852C181.775 8.90182 75.6833 108.321 102.016 296.502C134.933 531.727 327.266 660.878 394.876 878.947C444.777 1039.9 483.42 1452.09 302.693 1645.97" stroke="white" stroke-width="3"/>
<path d="M306.252 -36C247.486 -15.8453 131.583 71.9397 138.102 261.842C146.25 499.22 324.03 647.767 368.475 871.709C401.279 1036.99 396.624 1450.97 196.621 1624.9" stroke="white" stroke-width="3"/>
</svg>
