<svg width="1158" height="697" viewBox="0 0 1158 697" fill="none" xmlns="http://www.w3.org/2000/svg">
<path d="M445.709 -1964L707.035 -1665.8H837.698L1030.97 -1964L1205.19 -1823.88L1466.51 -1917.29L1439.29 -1399.93H1613.51L1665.23 -1065.8L1545.45 -695.735L1787.72 -559.208L1883 385.704H1368.52L1300.46 615.644H924.806L750.589 453.968L350.434 694.686L219.771 522.231V73.1285L89.1085 -167.59L219.771 -559.208V-950.825L2 -1065.8V-1665.8L445.709 -1964Z" stroke="white" stroke-width="3"/>
<path d="M478.18 -1872.69L721.222 -1598.65H846.629L1026.71 -1871.59L1189.19 -1739.93L1430.85 -1823.26L1406.16 -1342.79L1568.96 -1341.67L1617.09 -1029.35L1506.92 -683.866L1728.45 -557.841L1814.29 314.385L1336.85 314.667L1271.5 527.2L921.461 529.182L760.11 379.232L390.201 600.724L269.589 439.686V23.2815L148.977 -207.349L268.697 -569.316L267.805 -931.282L66.7852 -1039.88V-1596.19L478.18 -1872.69Z" stroke="white" stroke-width="3"/>
<path d="M510.648 -1781.37L735.405 -1531.5H855.556L1022.44 -1779.18L1173.2 -1655.98L1395.19 -1729.22L1373.03 -1285.65L1524.41 -1283.41L1568.96 -992.9L1468.39 -671.994L1669.17 -556.471L1745.57 243.07L1305.18 243.632L1242.53 438.759L918.112 442.722L769.627 304.499L429.964 506.764L319.403 357.144V-26.5629L208.842 -247.106L317.619 -579.421L315.834 -911.735L131.566 -1013.96V-1526.59L510.648 -1781.37Z" stroke="white" stroke-width="3"/>
<path d="M543.117 -1690.06L749.59 -1464.35H864.485L1018.17 -1686.77L1157.21 -1572.02L1359.53 -1635.19L1339.89 -1228.52L1479.86 -1225.15L1520.82 -956.453L1429.86 -660.124L1609.89 -555.103L1676.86 171.752L1273.51 172.595L1213.57 350.315L914.765 356.259L779.146 229.763L469.728 412.802L369.219 274.599V-76.4097L268.709 -286.864L366.542 -589.528L363.866 -892.192L196.35 -988.039V-1456.99L543.117 -1690.06Z" stroke="white" stroke-width="3"/>
<path d="M575.589 -1598.74L763.777 -1397.2H873.416L1013.91 -1594.37L1141.21 -1488.07L1323.87 -1541.15L1306.76 -1171.38L1435.32 -1166.89L1472.68 -920.006L1391.32 -648.254L1550.62 -553.736L1608.15 100.434L1241.84 101.558L1184.6 261.871L911.419 269.797L788.667 155.028L509.495 318.84L419.036 192.054V-126.256L328.577 -326.623L415.468 -599.636L411.9 -872.648L261.135 -962.121V-1387.38L575.589 -1598.74Z" stroke="white" stroke-width="3"/>
<path d="M608.056 -1507.43L777.96 -1330.05H882.343L1009.64 -1501.95L1125.22 -1404.12L1288.21 -1447.11L1273.63 -1114.24L1390.77 -1108.62L1424.54 -883.557L1352.79 -636.383L1491.34 -552.366L1539.43 29.1182L1210.17 30.5229L1155.64 173.43L908.07 183.337L798.183 80.2948L549.258 224.88L468.85 109.512V-176.101L388.442 -366.38L464.39 -609.741L459.929 -853.102L325.916 -936.2V-1317.78L608.056 -1507.43Z" stroke="white" stroke-width="3"/>
<path d="M640.527 -1416.11L792.147 -1262.91H891.274L1005.38 -1409.55L1109.23 -1320.17L1252.55 -1353.08L1240.5 -1057.11L1346.22 -1050.36L1376.41 -847.111L1314.26 -624.513L1432.07 -550.999L1470.72 -42.2002L1178.5 -40.5144L1126.67 84.9852L904.725 96.8744L807.704 5.55896L589.025 130.918L518.668 26.9669V-225.948L448.311 -406.139L513.315 -619.849L507.963 -833.559L390.701 -910.283V-1248.18L640.527 -1416.11Z" stroke="white" stroke-width="3"/>
<path d="M672.993 -1324.8L806.328 -1195.76H900.199L1001.11 -1317.14L1093.23 -1236.22L1216.88 -1259.04L1207.36 -999.97L1301.67 -992.103L1328.27 -810.665L1275.72 -612.644L1372.79 -549.632L1402.01 -113.519L1146.83 -111.552L1097.7 -3.45898L901.374 10.4117L817.219 -69.177L628.786 36.9556L568.48 -55.5782V-275.795L508.174 -445.898L562.235 -629.957L555.99 -814.015L455.48 -884.365V-1178.57L672.993 -1324.8Z" stroke="white" stroke-width="3"/>
</svg>
