<svg width="1885" height="2664" viewBox="0 0 1885 2664" fill="none" xmlns="http://www.w3.org/2000/svg">
<path d="M445.709 3L707.035 301.204H837.698L1030.97 3L1205.19 143.12L1466.51 49.7067L1439.29 567.073H1613.51L1665.23 901.205L1545.45 1271.27L1787.72 1407.79L1883 2352.7H1368.52L1300.46 2582.64H924.806L750.589 2420.97L350.434 2661.69L219.771 2489.23V2040.13L89.1085 1799.41L219.771 1407.79V1016.18L2 901.205V301.204L445.709 3Z" stroke="white" stroke-width="3"/>
<path d="M844.184 1222L891.443 1190.09H953.778L997.268 1250.45L1008.58 1325.81L1034.38 1340.42L1044.53 1441.53H989.73L923.915 1448.84L881.295 1474.6L867.378 1456.14V1408.08V1298.51L844.184 1286.21V1222Z" stroke="white" stroke-width="3"/>
<path d="M478.18 94.3135L721.222 368.351H846.629L1026.71 95.4077L1189.19 227.071L1430.85 143.742L1406.16 624.208L1568.96 625.332L1617.09 937.651L1506.92 1283.13L1728.45 1409.16L1814.29 2281.39L1336.85 2281.67L1271.5 2494.2L921.461 2496.18L760.11 2346.23L390.201 2567.72L269.589 2406.69V1990.28L148.977 1759.65L268.697 1397.68L267.805 1035.72L66.7852 927.122V370.806L478.18 94.3135Z" stroke="white" stroke-width="3"/>
<path d="M510.648 185.63L735.405 435.502H855.556L1022.44 187.818L1173.2 311.025L1395.19 237.779L1373.03 681.347L1524.41 683.595L1568.96 974.1L1468.39 1295.01L1669.17 1410.53L1745.57 2210.07L1305.18 2210.63L1242.53 2405.76L918.112 2409.72L769.627 2271.5L429.964 2473.76L319.403 2324.14V1940.44L208.842 1719.89L317.619 1387.58L315.834 1055.26L131.566 953.043V440.411L510.648 185.63Z" stroke="white" stroke-width="3"/>
<path d="M543.117 276.944L749.59 502.65H864.485L1018.17 280.227L1157.21 394.976L1359.53 331.815L1339.89 738.483L1479.86 741.855L1520.82 1010.55L1429.86 1306.88L1609.89 1411.9L1676.86 2138.75L1273.51 2139.59L1213.57 2317.31L914.765 2323.26L779.146 2196.76L469.728 2379.8L369.219 2241.6V1890.59L268.709 1680.14L366.542 1377.47L363.866 1074.81L196.35 978.961V510.014L543.117 276.944Z" stroke="white" stroke-width="3"/>
<path d="M575.589 368.258L763.777 569.797H873.416L1013.91 372.635L1141.21 478.927L1323.87 425.85L1306.76 795.62L1435.32 800.115L1472.68 1046.99L1391.32 1318.75L1550.62 1413.26L1608.15 2067.43L1241.84 2068.56L1184.6 2228.87L911.419 2236.8L788.667 2122.03L509.495 2285.84L419.036 2159.05V1840.74L328.577 1640.38L415.468 1367.36L411.9 1094.35L261.135 1004.88V579.616L575.589 368.258Z" stroke="white" stroke-width="3"/>
<path d="M608.056 459.574L777.96 636.947H882.343L1009.64 465.045L1125.22 562.881L1288.21 519.888L1273.63 852.758L1390.77 858.377L1424.54 1083.44L1352.79 1330.62L1491.34 1414.63L1539.43 1996.12L1210.17 1997.52L1155.64 2140.43L908.07 2150.34L798.183 2047.29L549.258 2191.88L468.85 2076.51V1790.9L388.442 1600.62L464.39 1357.26L459.929 1113.9L325.916 1030.8V649.221L608.056 459.574Z" stroke="white" stroke-width="3"/>
<path d="M640.527 550.887L792.147 704.095H891.274L1005.38 557.453L1109.23 646.832L1252.55 613.922L1240.5 909.894L1346.22 916.637L1376.41 1119.89L1314.26 1342.49L1432.07 1416L1470.72 1924.8L1178.5 1926.49L1126.67 2051.99L904.725 2063.87L807.704 1972.56L589.025 2097.92L518.668 1993.97V1741.05L448.311 1560.86L513.315 1347.15L507.963 1133.44L390.701 1056.72V718.823L640.527 550.887Z" stroke="white" stroke-width="3"/>
<path d="M672.993 642.201L806.328 771.242H900.199L1001.11 649.861L1093.23 730.783L1216.88 707.957L1207.36 967.03L1301.67 974.897L1328.27 1156.34L1275.72 1354.36L1372.79 1417.37L1402.01 1853.48L1146.83 1855.45L1097.7 1963.54L901.374 1977.41L817.219 1897.82L628.786 2003.96L568.48 1911.42V1691.2L508.174 1521.1L562.235 1337.04L555.99 1152.98L455.48 1082.63V788.425L672.993 642.201Z" stroke="white" stroke-width="3"/>
<path d="M705.466 733.515L820.517 838.39H909.132L996.849 742.269L1077.24 814.734L1181.23 801.993L1174.24 1024.17L1257.12 1033.16L1280.14 1192.78L1237.19 1366.23L1313.51 1418.74L1333.3 1782.16L1115.17 1784.41L1068.74 1875.1L898.031 1890.95L826.742 1823.09L668.554 1909.99L618.299 1828.88V1641.36L568.044 1481.34L611.163 1326.94L604.026 1172.53L520.268 1108.55V858.028L705.466 733.515Z" stroke="white" stroke-width="3"/>
<path d="M737.936 824.832L834.702 905.54H918.062L992.584 834.68L1061.24 898.688L1145.57 896.031L1141.1 1081.31L1212.57 1091.42L1232 1229.23L1198.66 1378.1L1254.24 1420.11L1264.58 1710.85L1083.5 1713.38L1039.78 1786.66L894.684 1804.49L836.261 1748.35L708.319 1816.03L668.115 1746.34V1591.51L627.911 1441.59L660.086 1316.83L652.057 1192.07L585.051 1134.47V927.633L737.936 824.832Z" stroke="white" stroke-width="3"/>
<path d="M770.403 916.145L848.885 972.688H926.989L988.317 927.088L1045.25 982.639L1109.9 990.066L1107.97 1138.44L1168.02 1149.68L1183.86 1265.68L1160.12 1389.97L1194.96 1421.47L1195.87 1639.53L1051.83 1642.34L1010.81 1698.21L891.334 1718.03L845.778 1673.62L748.082 1722.07L717.929 1663.79V1541.67L687.776 1401.83L709.008 1306.72L700.087 1211.62L649.832 1160.39V997.235L770.403 916.145Z" stroke="white" stroke-width="3"/>
<path d="M802.874 1007.46L863.072 1039.84H935.92L984.053 1019.5L1029.26 1066.59L1074.24 1084.1L1074.84 1195.58L1123.48 1207.94L1135.73 1302.12L1121.59 1401.84L1135.68 1422.84L1127.16 1568.21L1020.16 1571.3L981.846 1609.77L887.989 1631.56L855.299 1598.88L787.849 1628.11L767.747 1581.24V1491.82L747.645 1362.07L757.934 1296.62L748.12 1231.16L714.617 1186.31V1066.84L802.874 1007.46Z" stroke="white" stroke-width="3"/>
<path d="M835.344 1098.77L877.257 1106.99H944.849L979.788 1111.91L1013.26 1150.54L1038.58 1178.14L1041.71 1252.72L1078.93 1266.2L1087.59 1338.57L1083.06 1413.71L1076.4 1424.21L1058.44 1496.9L988.491 1500.27L952.88 1521.33L884.642 1545.1L864.818 1524.15L827.613 1534.15L817.562 1498.7V1441.98L807.511 1322.31L806.857 1286.51L796.152 1250.71L779.4 1212.23V1136.44L835.344 1098.77Z" stroke="white" stroke-width="3"/>
</svg>
